<?xml version="1.0" encoding="UTF-8" standalone="no"?>
<!-- Generator: Avocode 1.1.1 - http://avocode.com -->
<svg xmlns="http://www.w3.org/2000/svg" xmlns:xlink="http://www.w3.org/1999/xlink" width="36" height="49" viewBox="0 0 36 49">
    <desc>Created with Avocode</desc>
    <path d="M29.61,25.18C31.78,25.93,36.98,28.62,35.2,36.85C32.97,47.15,30.04,48.96,28.7,48.36C26.88,47.55,28.82,45.04,28.09,42.3C27.77,41.06,26.43,39.83,25.49,39.23C26.99,36.11,28.91,31.15,29.61,25.18C29.61,25.18,29.61,25.18,29.61,25.18M10.6,39.18C9.65,39.74,8.23,41.02,7.89,42.3C7.17,45.04,9.11,47.55,7.29,48.36C5.95,48.95,3.02,47.15,0.79,36.85C-1.03,28.47,4.4,25.84,6.49,25.14C7.19,31.1,9.1,36.04,10.6,39.18C10.6,39.18,10.6,39.18,10.6,39.18M16.29,43.02C16.29,43.02,20.2,43.02,20.2,43.02C20.05,46.03,19.23,48.25,18.24,48.25C17.25,48.25,16.44,46.03,16.29,43.02C16.29,43.02,16.29,43.02,16.29,43.02M18.14,0.94C31.67,7.95,28.7,24.91,28.7,24.91C27.55,35.01,22.74,42.02,22.74,42.02C22.74,42.02,13.37,42.02,13.37,42.02C13.37,42.02,8.56,35.01,7.41,24.91C7.41,24.91,4.44,7.95,17.97,0.94C17.97,0.94,18.14,0.94,18.14,0.94C18.14,0.94,18.14,0.94,18.14,0.94" fill="#ffffff" />
</svg>