<?xml version="1.0" encoding="UTF-8" standalone="no"?>
<!-- Generator: Avocode 1.1.1 - http://avocode.com -->
<svg xmlns="http://www.w3.org/2000/svg" xmlns:xlink="http://www.w3.org/1999/xlink" width="35" height="48" viewBox="0 0 35 48">
    <desc>Created with Avocode</desc>
    <path d="M17.5,0C27.16,0,34.99,7.82,34.99,17.47C34.99,19,34.47,20.89,33.55,22.86C32.66,21.87,31.49,21.27,30.21,21.27C28.46,21.27,26.89,22.38,25.97,24.13C25.05,22.38,23.47,21.27,21.73,21.27C19.99,21.27,18.42,22.38,17.5,24.13C16.58,22.38,15,21.27,13.26,21.27C11.52,21.27,9.95,22.38,9.03,24.13C8.11,22.38,6.54,21.27,4.8,21.27C3.53,21.27,2.37,21.86,1.49,22.82C0.54,20.83,0.01,18.95,0.01,17.47C0.01,7.82,7.84,0,17.5,0C17.5,0,17.5,0,17.5,0M30.21,22.95C31.2,22.95,32.08,23.54,32.7,24.48C32.14,25.46,31.48,26.45,30.73,27.4C30.73,27.4,30.74,27.4,30.74,27.4C30.74,27.4,22.19,38.49,22.19,38.49C22.19,38.49,12.81,38.49,12.81,38.49C12.81,38.49,4.35,27.4,4.35,27.4C4.35,27.4,4.36,27.4,4.36,27.4C3.59,26.43,2.91,25.42,2.33,24.42C2.95,23.52,3.82,22.95,4.79,22.95C6.6,22.95,8.08,24.92,8.18,27.4C8.18,27.49,8.19,27.57,8.19,27.66C8.19,28.12,8.57,28.49,9.03,28.49C9.49,28.49,9.87,28.12,9.87,27.66C9.87,27.57,9.87,27.49,9.88,27.4C9.97,24.92,11.45,22.95,13.26,22.95C15.08,22.95,16.55,24.92,16.65,27.4C16.65,27.49,16.66,27.57,16.66,27.66C16.66,28.12,17.04,28.49,17.5,28.49C17.96,28.49,18.34,28.12,18.34,27.66C18.34,27.57,18.34,27.49,18.35,27.4C18.44,24.92,19.92,22.95,21.74,22.95C23.55,22.95,25.03,24.92,25.12,27.4C25.13,27.49,25.13,27.57,25.13,27.66C25.13,28.12,25.51,28.49,25.97,28.49C26.44,28.49,26.81,28.12,26.81,27.66C26.81,27.57,26.82,27.49,26.82,27.4C26.92,24.92,28.4,22.95,30.21,22.95C30.21,22.95,30.21,22.95,30.21,22.95M14,44C14,44,21,44,21,44C21,44,21,48,21,48C21,48,14,48,14,48C14,48,14,44,14,44" fill="#ffffff" />
</svg>
