<?xml version="1.0" encoding="utf-8"?>
<!-- Generator: Adobe Illustrator 18.1.1, SVG Export Plug-In . SVG Version: 6.00 Build 0)  -->
<svg version="1.1" xmlns="http://www.w3.org/2000/svg" xmlns:xlink="http://www.w3.org/1999/xlink" x="0px" y="0px"
	 viewBox="0 0 1200 960" enable-background="new 0 0 1200 960" xml:space="preserve">
<g id="streams">
</g>
<g id="balloon-topic">
</g>
<g id="groups">
</g>
<g id="persons">
</g>
<g id="house">
</g>
<g id="liferay-logo">
</g>
<g id="heart-full">
</g>
<g id="confirm">
</g>
<g id="send">
</g>
<g id="back">
</g>
<g id="cancel_1_">
</g>
<g id="plus">
</g>
<g id="bullhorn">
</g>
<g id="link">
</g>
<g id="pen">
</g>
<g id="bell">
	<path d="M1080,705v90c0,24.9-20.1,45-45,45H720c0,66.3-53.7,120-120,120s-120-53.7-120-120H165c-24.9,0-45-20.1-45-45v-90
		c0-24.9,20.1-45,45-45h75V300C240,134.3,374.3,0,540,0v-60c0-33.1,26.9-60,60-60l0,0c33.1,0,60,26.9,60,60V0
		c165.7,0,300,134.3,300,300v360h75C1059.9,660,1080,680.1,1080,705z"/>
</g>
<g id="magnifier">
</g>
<g id="menu_x5F_hamburguer">
</g>
<g id="ellipsis">
</g>
<g id="balloon_x5F_comment">
</g>
<g id="heart_x5F_inline">
</g>
<g id="heart_x5F_outline">
</g>
<g id="camera">
</g>
<g id="subscribe">
</g>
<g id="star">
</g>
<g id="guides">
</g>
</svg>
