<?xml version="1.0" encoding="utf-8"?>
<!-- Generator: Adobe Illustrator 18.1.1, SVG Export Plug-In . SVG Version: 6.00 Build 0)  -->
<svg version="1.1" xmlns="http://www.w3.org/2000/svg" xmlns:xlink="http://www.w3.org/1999/xlink" x="0px" y="0px"
	 viewBox="0 0 1260 960" enable-background="new 0 0 1260 960" xml:space="preserve">
<g id="dribbble">
</g>
<g id="globe">
</g>
<g id="github">
</g>
<g id="facebook">
</g>
<g id="twitter">
</g>
<g id="skype">
</g>
<g id="phone">
</g>
<g id="mail">
</g>
<g id="liferay-logo-2">
</g>
<g id="menu-content">
</g>
<g id="streams">
</g>
<g id="balloon-topic">
</g>
<g id="groups">
</g>
<g id="persons">
</g>
<g id="house">
</g>
<g id="liferay-logo">
</g>
<g id="eye">
</g>
<g id="confirm">
</g>
<g id="send">
</g>
<g id="back">
</g>
<g id="cancel_1_">
</g>
<g id="plus">
</g>
<g id="bullhorn">
</g>
<g id="link">
</g>
<g id="pen">
</g>
<g id="bell">
</g>
<g id="magnifier">
	<path d="M1122.4,857.6l-210-210c-14.2-14.2-33.7-19.8-52.1-16.8l-28.6-28.6C910.8,525.8,960,418.7,960,300c0-232-188-420-420-420
		S120,68,120,300s188,420,420,420c88,0,169.7-27.1,237.2-73.3l33.6,33.6c-3,18.4,2.6,37.9,16.8,52.1l210,210
		c11.7,11.7,27.1,17.6,42.4,17.6s30.7-5.9,42.4-17.6C1145.9,919,1145.9,881,1122.4,857.6z M540,600c-40.6,0-79.8-7.9-116.7-23.5
		c-35.7-15.1-67.8-36.8-95.4-64.3c-27.6-27.6-49.2-59.7-64.3-95.4C247.9,379.8,240,340.6,240,300s7.9-79.8,23.5-116.7
		c15.1-35.7,36.8-67.8,64.3-95.4c27.6-27.6,59.7-49.2,95.4-64.3C460.2,7.9,499.4,0,540,0s79.8,7.9,116.7,23.5
		c35.7,15.1,67.8,36.8,95.4,64.3c27.6,27.6,49.2,59.7,64.3,95.4C832.1,220.2,840,259.4,840,300s-7.9,79.8-23.5,116.7
		c-15.1,35.7-36.8,67.8-64.3,95.4c-27.6,27.6-59.7,49.2-95.4,64.3C619.8,592.1,580.6,600,540,600z"/>
</g>
<g id="menu">
</g>
<g id="ellipsis">
</g>
<g id="balloon-comment">
</g>
<g id="heart-fill">
</g>
<g id="heart">
</g>
<g id="camera">
</g>
<g id="subscribe">
</g>
<g id="star">
</g>
<g id="guides">
</g>
</svg>
