<?xml version="1.0" standalone="no"?>
<!DOCTYPE svg PUBLIC "-//W3C//DTD SVG 1.1//EN" "http://www.w3.org/Graphics/SVG/1.1/DTD/svg11.dtd" >
<svg xmlns="http://www.w3.org/2000/svg">
<metadata>Generated by IcoMoon</metadata>
<defs>
<font id="ui-kit-12" horiz-adv-x="1024">
<font-face units-per-em="1024" ascent="960" descent="-64" />
<missing-glyph horiz-adv-x="1024" />
<glyph unicode="&#x20;" d="" horiz-adv-x="512" />
<glyph unicode="&#xe000;" d="M597.333 938.667c-281.6 0-512-230.4-512-514.133 0-279.467 230.4-509.867 512-509.867s512 230.4 512 509.867c0 283.733-230.4 514.133-512 514.133zM853.333 384c0-23.573-19.093-42.667-42.667-42.667h-256c-23.573 0-42.667 19.093-42.667 42.667v0 341.333c0 23.573 19.093 42.667 42.667 42.667v0c23.573 0 42.667-19.093 42.667-42.667v-298.667h213.333c23.573 0 42.667-19.093 42.667-42.667v0z" horiz-adv-x="1195" />
<glyph unicode="&#xe001;" d="M512 1024c-235.627 0-426.667-191.040-426.667-426.667 0-70.827 17.28-137.6 47.787-196.48 158.613-334.72 159.467-336.64 224.64-474.453h0.213c27.52-57.387 86.080-97.067 154.027-97.067s126.507 39.68 154.027 97.067h0.213c65.173 137.813 66.027 139.733 224.64 474.453 30.507 58.88 47.787 125.653 47.787 196.48 0 235.627-191.040 426.667-426.667 426.667zM512 426.667c-94.293 0-170.667 76.373-170.667 170.667s76.373 170.667 170.667 170.667 170.667-76.373 170.667-170.667-76.373-170.667-170.667-170.667z" />
<glyph unicode="&#xe002;" d="M1109.333 469.334c0-259.2-229.227-469.333-512-469.333-56.747 0-111.253 8.427-162.24 24.107l-237.653-59.413c-45.547-11.413-73.493 16.533-62.080 62.080l43.2 172.587c-58.773 76.373-93.227 169.493-93.227 269.973 0 259.2 229.227 469.333 512 469.333s512-210.133 512-469.333z" horiz-adv-x="1195" />
<glyph unicode="&#xe003;" d="M938.667 768h-85.333c0 94.293-76.373 170.667-170.667 170.667h-170.667c-94.293 0-170.667-76.373-170.667-170.667v0h-85.333c-94.293 0-170.667-76.373-170.667-170.667v-426.667c0-94.293 76.373-170.667 170.667-170.667h682.667c94.293 0 170.667 76.373 170.667 170.667v426.667c0 94.293-76.373 170.667-170.667 170.667zM597.333 170.667c-141.333 0-256 114.667-256 256s114.667 256 256 256 256-114.667 256-256-114.667-256-256-256zM597.333 256c-94.293 0-170.667 76.373-170.667 170.667s76.373 170.667 170.667 170.667 170.667-76.373 170.667-170.667-76.373-170.667-170.667-170.667z" horiz-adv-x="1195" />
<glyph unicode="&#xe004;" d="M1109.333 640c0-82.453-33.387-157.12-87.467-211.2-68.907-68.907-101.76-101.76-170.667-170.667-54.080-54.080-128.747-87.467-211.2-87.467-113.493 0-212.267 63.36-262.72 156.587l115.84 115.84c5.333-29.867 19.52-57.387 41.387-79.253 28.16-28.16 65.707-43.733 105.6-43.733s77.44 15.573 105.6 43.733l170.56 170.56c28.16 28.16 43.733 65.707 43.733 105.6s-15.573 77.44-43.733 105.6c-28.16 28.16-65.707 43.733-105.6 43.733s-77.44-15.573-105.6-43.733l-22.293-22.293c-40.853 15.467-83.947 23.36-128.107 23.36-22.187 0-44.16-2.027-65.6-5.973 34.88 34.987 64.747 64.853 110.4 110.507 54.080 54.080 128.747 87.467 211.2 87.467 164.907 0 298.667-133.76 298.667-298.667zM511.893 130.027l-22.293-22.293c-28.16-28.16-65.707-43.733-105.6-43.733s-77.44 15.573-105.6 43.733c-28.16 28.16-43.733 65.707-43.733 105.6s15.573 77.44 43.733 105.6l170.667 170.667c28.16 28.16 65.707 43.733 105.6 43.733s77.44-15.573 105.6-43.733c21.867-21.867 36.16-49.387 41.387-79.253l115.84 115.84c-50.56 93.12-149.333 156.48-262.827 156.48-82.453 0-157.12-33.387-211.2-87.467-68.907-68.907-101.76-101.76-170.667-170.667-54.080-54.080-87.467-128.747-87.467-211.2 0-164.907 133.76-298.667 298.667-298.667 82.453 0 157.12 33.387 211.2 87.467 45.653 45.653 75.52 75.52 110.507 110.507-21.547-3.947-43.413-5.973-65.6-5.973-44.267 0-87.36 7.893-128.213 23.36z" horiz-adv-x="1195" />
<glyph unicode="&#xe005;" d="M640-85.333c-64.533 0-124.8 28.693-165.44 78.72-0.213 0.32-0.533 0.64-0.747 0.853l-313.067 389.12c-0.32 0.427-0.64 0.747-0.96 1.173-23.467 29.333-41.707 62.080-54.4 97.387-13.333 37.013-20.053 75.84-20.053 115.413 0 46.080 9.067 90.773 26.88 132.907 17.173 40.64 41.813 77.12 73.067 108.48 31.36 31.36 67.84 55.893 108.48 73.067 42.133 17.813 86.827 26.88 132.907 26.88 78.72 0 153.6-26.987 213.333-74.773 59.733 47.787 134.613 74.773 213.333 74.773 46.080 0 90.773-9.067 132.907-26.88 40.64-17.173 77.12-41.813 108.48-73.067 31.36-31.36 55.893-67.84 73.067-108.48 17.813-42.133 26.88-86.827 26.88-132.907 0-39.573-6.72-78.4-20.053-115.413-12.693-35.307-30.933-68.053-54.4-97.387-0.32-0.427-0.64-0.747-0.96-1.173l-313.067-389.12c-0.213-0.32-0.533-0.64-0.747-0.853-40.64-50.027-100.907-78.72-165.44-78.72zM606.187 101.974c0.213-0.213 0.32-0.427 0.533-0.64 8.213-10.133 20.267-16 33.28-16s25.067 5.867 33.28 16c0.213 0.213 0.32 0.427 0.533 0.64l311.68 387.413c0.32 0.32 0.533 0.747 0.853 1.067 24.64 30.507 37.653 67.52 37.653 106.88 0 94.080-76.587 170.667-170.667 170.667-57.28 0-110.507-28.587-142.293-76.373-15.787-23.787-42.453-38.080-71.040-38.080s-55.253 14.293-71.040 38.080c-31.787 47.787-85.013 76.373-142.293 76.373-94.080 0-170.667-76.587-170.667-170.667 0-39.36 13.013-76.373 37.653-106.987 0.32-0.32 0.533-0.747 0.853-1.067l311.68-387.307z" horiz-adv-x="1280" />
<glyph unicode="&#xe006;" d="M640 1024l130.987-423.467h423.68l-342.827-262.080 130.987-423.68-342.827 261.76-342.827-261.867 130.987 423.787-342.827 262.080h423.68l130.987 423.467z" horiz-adv-x="1280" />
<glyph unicode="&#xe007;" d="M938.667 597.334h-341.333v-85.333h341.333v85.333zM938.667 768h-341.333v-85.333h341.333v85.333zM938.667 426.667h-341.333v-85.333h341.333v85.333zM512 426.667h-256v-256h256v256zM512 768h-256v-256h256v256zM85.333 938.667v-938.667h1024v938.667h-1024zM1024 85.334h-853.333v768h853.333v-768zM938.667 256h-341.333v-85.333h341.333v85.333z" horiz-adv-x="1195" />
<glyph unicode="&#xe008;" d="M999.040 60.374c33.28-33.28 33.28-87.36 0-120.64-16.747-16.747-38.507-25.067-60.373-25.067s-43.627 8.32-60.373 24.96l-323.627 323.733-323.627-323.733c-16.747-16.64-38.507-24.96-60.373-24.96s-43.627 8.32-60.373 24.96c-33.28 33.28-33.28 87.36 0 120.64l323.733 323.733-323.733 323.627c-33.28 33.28-33.28 87.36 0 120.64s87.36 33.28 120.64 0l323.733-323.627 323.627 323.627c33.28 33.28 87.36 33.28 120.64 0s33.28-87.36 0-120.64l-323.627-323.627 323.733-323.627z" horiz-adv-x="1109" />
<glyph unicode="&#xe009;" d="M426.667 426.667c-141.333 0-256 114.667-256 256s114.667 256 256 256 256-114.667 256-256-114.667-256-256-256zM768 170.667c0 94.293-76.373 170.667-170.667 170.667h-341.333c-94.293 0-170.667-76.373-170.667-170.667v-170.667h682.667v170.667z" horiz-adv-x="853" />
<glyph unicode="&#xe00a;" d="M426.667 938.667v-341.333h-341.333v-597.333h768v938.667h-426.667zM256 256h-85.333v85.333h85.333v-85.333zM256 426.667h-85.333v85.333h85.333v-85.333zM426.667 256h-85.333v85.333h85.333v-85.333zM426.667 426.667h-85.333v85.333h85.333v-85.333zM768 85.334h-85.333v170.667h-85.333v-170.667h-85.333v768h256v-768zM682.667 341.334h-85.333v85.333h85.333v-85.333zM682.667 512h-85.333v85.333h85.333v-85.333zM682.667 682.667h-85.333v85.333h85.333v-85.333z" horiz-adv-x="939" />
<glyph unicode="&#xe00b;" d="M341.333-0h-256v298.667c0 70.72 57.28 128 128 128v0c70.72 0 128-57.28 128-128v-298.667zM1194.667 298.667c0 70.72-57.28 128-128 128v0c-70.72 0-128-57.28-128-128v-298.667h256v298.667zM853.333 384c0 70.72-57.28 128-128 128h-170.667c-70.72 0-128-57.28-128-128v-384h426.667v384zM213.333 512c70.72 0 128 57.28 128 128s-57.28 128-128 128-128-57.28-128-128 57.28-128 128-128zM1066.667 512c70.72 0 128 57.28 128 128s-57.28 128-128 128-128-57.28-128-128 57.28-128 128-128zM640 1024c-117.867 0-213.333-95.467-213.333-213.333s95.467-213.333 213.333-213.333 213.333 95.467 213.333 213.333-95.467 213.333-213.333 213.333z" horiz-adv-x="1280" />
<glyph unicode="&#xe00c;" d="M85.333 938.667v-1024h1024v1024h-1024zM1024-0h-853.333v853.333h853.333v-853.333zM426.667 85.334h85.333v170.667h170.667v-170.667h85.333v170.667h170.667v85.333h-170.667v170.667h170.667v85.333h-170.667v170.667h-85.333v-170.667h-170.667v170.667h-85.333v-170.667h-170.667v-85.333h170.667v-170.667h-170.667v-85.333h170.667v-170.667zM512 512h170.667v-170.667h-170.667v170.667z" horiz-adv-x="1195" />
<glyph unicode="&#xe00d;" d="M743.040 231.040c33.28-33.28 33.28-87.36 0-120.64-16.747-16.747-38.507-25.067-60.373-25.067s-43.627 8.32-60.373 24.96l-195.627 195.733-195.627-195.733c-16.747-16.64-38.507-24.96-60.373-24.96s-43.627 8.32-60.373 24.96c-33.28 33.28-33.28 87.36 0 120.64l195.733 195.733-195.733 195.627c-33.28 33.28-33.28 87.36 0 120.64s87.36 33.28 120.64 0l195.733-195.627 195.627 195.627c33.28 33.28 87.36 33.28 120.64 0s33.28-87.36 0-120.64l-195.627-195.627 195.733-195.627z" horiz-adv-x="853" />
<glyph unicode="&#xe00e;" d="M435.52 101.974c0.213-0.213 0.32-0.427 0.533-0.64 8.213-10.133 20.267-16 33.28-16s25.067 5.867 33.28 16c0.213 0.213 0.32 0.427 0.533 0.64l311.68 387.413c0.32 0.32 0.533 0.747 0.853 1.067 24.64 30.507 37.653 67.52 37.653 106.88 0 94.080-76.587 170.667-170.667 170.667-57.28 0-110.507-28.587-142.293-76.373-15.787-23.787-42.453-38.080-71.040-38.080s-55.253 14.293-71.040 38.080c-31.787 47.787-85.013 76.373-142.293 76.373-94.080 0-170.667-76.587-170.667-170.667 0-39.36 13.013-76.373 37.653-106.987 0.32-0.32 0.533-0.747 0.853-1.067l311.68-387.307z" horiz-adv-x="939" />
<glyph unicode="&#xe00f;" d="M584.853-12.48c16.64-16.64 16.64-43.627 0-60.373-8.32-8.32-19.2-12.48-30.187-12.48s-21.867 4.16-30.187 12.48l-426.667 426.667c-16.64 16.64-16.64 43.627 0 60.373l426.667 426.667c16.64 16.64 43.627 16.64 60.373 0s16.64-43.627 0-60.373l-396.48-396.48 396.48-396.48z" horiz-adv-x="683" />
<glyph unicode="&#xe010;" d="M494.293 384l-396.48 396.48c-16.64 16.64-16.64 43.627 0 60.373s43.627 16.64 60.373 0l426.667-426.667c16.64-16.64 16.64-43.627 0-60.373l-426.667-426.667c-8.32-8.32-19.2-12.48-30.187-12.48s-21.867 4.16-30.187 12.48c-16.64 16.64-16.64 43.627 0 60.373l396.48 396.48z" horiz-adv-x="683" />
<glyph unicode="&#xe011;" d="M1109.333 426.667h-426.667v-426.667h-170.667v426.667h-426.667v170.667h426.667v426.667h170.667v-426.667h426.667v-170.667z" horiz-adv-x="1195" />
<glyph unicode="&#xe012;" d="M1024 341.334c0-94.293-76.373-170.667-170.667-170.667s-170.667 76.373-170.667 170.667c0 94.293 76.373 170.667 170.667 170.667s170.667-76.373 170.667-170.667zM1280 512v-512c0-94.293-76.373-170.667-170.667-170.667h-512c-94.293 0-170.667 76.373-170.667 170.667-94.293 0-170.667 76.373-170.667 170.667-94.293 0-170.667 76.373-170.667 170.667v512c0 94.293 76.373 170.667 170.667 170.667h512c94.293 0 170.667-76.373 170.667-170.667 94.293 0 170.667-76.373 170.667-170.667 94.293 0 170.667-76.373 170.667-170.667zM256 256v426.667c0 94.293 76.373 170.667 170.667 170.667h426.667c0 47.040-38.293 85.333-85.333 85.333h-512c-47.040 0-85.333-38.293-85.333-85.333v-512c0-47.040 38.293-85.333 85.333-85.333zM426.667 85.334v426.667c0 94.293 76.373 170.667 170.667 170.667h426.667c0 47.040-38.293 85.333-85.333 85.333h-512c-47.040 0-85.333-38.293-85.333-85.333v-512c0-47.040 38.293-85.333 85.333-85.333zM1194.667 512c0 47.040-38.293 85.333-85.333 85.333h-512c-47.040 0-85.333-38.293-85.333-85.333v-512c0-47.040 38.293-85.333 85.333-85.333h85.333v170.667h341.333v-170.667h85.333c47.040 0 85.333 38.293 85.333 85.333v512z" horiz-adv-x="1365" />
<glyph unicode="&#xe013;" d="M938.667 768c0 94.293-76.373 170.667-170.667 170.667h-512c-94.293 0-170.667-76.373-170.667-170.667v-512c0-94.293 76.373-170.667 170.667-170.667 0-94.293 76.373-170.667 170.667-170.667h512c94.293 0 170.667 76.373 170.667 170.667v512c0 94.293-76.373 170.667-170.667 170.667zM170.667 256v512c0 47.040 38.293 85.333 85.333 85.333h512c47.040 0 85.333-38.293 85.333-85.333h-426.667c-94.293 0-170.667-76.373-170.667-170.667v-426.667c-47.040 0-85.333 38.293-85.333 85.333zM1024 85.334c0-47.040-38.293-85.333-85.333-85.333h-85.333v170.667h-341.333v-170.667h-85.333c-47.040 0-85.333 38.293-85.333 85.333v512c0 47.040 38.293 85.333 85.333 85.333h512c47.040 0 85.333-38.293 85.333-85.333v-512zM853.333 426.667c0-94.293-76.373-170.667-170.667-170.667s-170.667 76.373-170.667 170.667c0 94.293 76.373 170.667 170.667 170.667s170.667-76.373 170.667-170.667z" horiz-adv-x="1195" />
<glyph unicode="&#xe014;" d="M596.888 939.735v-256.267h-512.534v-768.801h1110.49v1025.068h-597.956zM511.466 0.089h-85.422v341.689h-170.845v-341.689h-85.422v597.956h341.689v-597.956zM853.155 85.512h-85.422v170.845h85.422v-170.845zM853.155 341.779h-85.422v170.845h85.422v-170.845zM853.155 598.046h-85.422v170.845h85.422v-170.845zM1024 85.512h-85.422v170.845h85.422v-170.845zM1024 341.779h-85.422v170.845h85.422v-170.845zM1024 598.046h-85.422v170.845h85.422v-170.845z" horiz-adv-x="1280" />
<glyph unicode="&#xe015;" d="M341.333 810.667c0-70.692-57.308-128-128-128s-128 57.308-128 128c0 70.692 57.308 128 128 128s128-57.308 128-128zM682.667 810.667c0-70.692-57.308-128-128-128s-128 57.308-128 128c0 70.692 57.308 128 128 128s128-57.308 128-128zM1024 810.667c0-70.692-57.308-128-128-128s-128 57.308-128 128c0 70.692 57.308 128 128 128s128-57.308 128-128zM341.333 469.334c0-70.692-57.308-128-128-128s-128 57.308-128 128c0 70.692 57.308 128 128 128s128-57.308 128-128zM682.667 469.334c0-70.692-57.308-128-128-128s-128 57.308-128 128c0 70.692 57.308 128 128 128s128-57.308 128-128zM1024 469.334c0-70.692-57.308-128-128-128s-128 57.308-128 128c0 70.692 57.308 128 128 128s128-57.308 128-128zM341.333 128c0-70.692-57.308-128-128-128s-128 57.308-128 128c0 70.692 57.308 128 128 128s128-57.308 128-128zM682.667 128c0-70.692-57.308-128-128-128s-128 57.308-128 128c0 70.692 57.308 128 128 128s128-57.308 128-128zM1024 128c0-70.692-57.308-128-128-128s-128 57.308-128 128c0 70.692 57.308 128 128 128s128-57.308 128-128z" horiz-adv-x="1109" />
<glyph unicode="&#xe016;" d="M939.733 340.267h-323.307c-6.293 0.747-12.587 1.067-19.093 1.067h-341.333c-94.293 0-170.667-76.373-170.667-170.667v-170.667h341.333v-1.067h682.667v171.733c0 94.293-75.307 169.6-169.6 169.6zM1024 84.267h-256v86.4c0 30.613-8.107 59.413-22.187 84.267h193.92c22.827 0 43.84-8.533 59.84-24.427s24.427-37.013 24.427-59.84v-86.4zM426.667 426.667c65.813 0 125.867 24.853 171.2 65.707 45.333-40.853 105.387-65.707 171.2-65.707 141.333 0 256 114.667 256 256s-114.667 256-256 256c-65.813 0-125.867-24.853-171.2-65.707-45.333 40.853-105.387 65.707-171.2 65.707-141.333 0-256-114.667-256-256s114.667-256 256-256zM889.707 803.307c32.32-32.213 50.027-75.093 50.027-120.64s-17.707-88.427-50.027-120.64-75.093-50.027-120.64-50.027c-44.373 0-86.080 16.747-117.973 47.36 20.053 36.587 31.573 78.613 31.573 123.307s-11.52 86.72-31.573 123.307c31.893 30.613 73.6 47.36 117.973 47.36 45.547 0 88.427-17.707 120.64-50.027z" horiz-adv-x="1195" />
<glyph unicode="&#xe017;" d="M1024 853.334h-938.667v-768h512l256-256v256h256v768h-85.333zM1024 170.667h-853.333v597.333h853.333v-597.333zM256 682.667h682.667v-85.333h-682.667v85.333zM256 512h682.667v-85.333h-682.667v85.333zM256 341.334h682.667v-85.333h-682.667v85.333z" horiz-adv-x="1195" />
<glyph unicode="&#xe018;" d="M426.667-35.306l-316.373 316.267 120.64 120.64 195.733-195.627 451.627 451.627 120.64-120.64-572.267-572.267z" />
<glyph unicode="&#xe019;" d="M1080-141.44c-9.067 0-18.133 1.387-26.987 4.373l-265.173 88.427c-60.267-24.107-125.44-36.693-190.507-36.693-66.453 0-131.307 12.587-192.64 37.547-63.573 25.813-120.533 63.573-169.387 112.427s-86.72 105.813-112.427 169.387c-24.96 61.333-37.547 126.187-37.547 192.64s12.587 131.307 37.547 192.64c25.813 63.573 63.573 120.533 112.427 169.387s105.813 86.72 169.387 112.427c61.333 24.96 126.187 37.547 192.64 37.547s131.307-12.587 192.64-37.547c63.573-25.813 120.533-63.573 169.387-112.427 76.8-76.8 126.4-173.867 143.467-280.747 8.213-51.413 8.64-103.573 1.173-155.093-5.867-40.213-16.32-79.36-31.36-116.8l88.32-265.067c10.24-30.613 2.24-64.427-20.587-87.36-16.213-16.32-38.080-25.067-60.373-25.067zM783.68 128.107c9.067 0 18.24-1.493 26.987-4.373l134.4-44.8-44.8 134.4c-7.040 21.12-5.547 44.16 4.16 64.213 63.467 130.773 37.013 287.68-65.813 390.507-64.427 64.427-150.080 99.947-241.28 99.947s-176.853-35.52-241.387-99.947-99.947-150.187-99.947-241.387 35.52-176.853 99.947-241.387c64.533-64.427 150.187-99.947 241.387-99.947 51.52 0 103.040 11.84 149.12 34.133 11.733 5.76 24.427 8.64 37.227 8.64z" horiz-adv-x="1195" />
<glyph unicode="&#xe01a;" d="M783.68 128.107c9.067 0 18.24-1.493 26.987-4.373l134.4-44.8-44.8 134.4c-7.040 21.12-5.547 44.16 4.16 64.213 63.467 130.773 37.013 287.68-65.813 390.507-64.427 64.427-150.080 99.947-241.28 99.947s-176.853-35.52-241.387-99.947-99.947-150.187-99.947-241.387 35.52-176.853 99.947-241.387c64.533-64.427 150.187-99.947 241.387-99.947 51.52 0 103.040 11.84 149.12 34.133 11.733 5.76 24.427 8.64 37.227 8.64z" horiz-adv-x="1195" />
<glyph unicode="&#xe01b;" d="M640-85.333c-64.533 0-124.8 28.693-165.44 78.72-0.213 0.32-0.533 0.64-0.747 0.853l-313.067 389.12c-0.32 0.427-0.64 0.747-0.96 1.173-23.467 29.333-41.707 62.080-54.4 97.387-13.333 37.013-20.053 75.84-20.053 115.413 0 46.080 9.067 90.773 26.88 132.907 17.173 40.64 41.813 77.12 73.067 108.48 31.36 31.36 67.84 55.893 108.48 73.067 42.133 17.813 86.827 26.88 132.907 26.88 78.72 0 153.6-26.987 213.333-74.773 59.733 47.787 134.613 74.773 213.333 74.773 46.080 0 90.773-9.067 132.907-26.88 40.64-17.173 77.12-41.813 108.48-73.067 31.36-31.36 55.893-67.84 73.067-108.48 17.813-42.133 26.88-86.827 26.88-132.907 0-39.573-6.72-78.4-20.053-115.413-12.693-35.307-30.933-68.053-54.4-97.387-0.32-0.427-0.64-0.747-0.96-1.173l-313.067-389.12c-0.213-0.32-0.533-0.64-0.747-0.853-40.64-50.027-100.907-78.72-165.44-78.72z" horiz-adv-x="1280" />
<glyph unicode="&#xe01c;" d="M469.333 85.334c-19.733 0-39.573 6.827-55.573 20.587l-298.667 256c-35.733 30.72-39.893 84.587-9.28 120.32 30.72 35.733 84.587 39.893 120.32 9.28l243.2-208.427 243.093 208.427c35.733 30.72 89.707 26.56 120.32-9.28 30.72-35.733 26.56-89.707-9.28-120.32l-298.667-256c-15.893-13.76-35.733-20.587-55.467-20.587z" horiz-adv-x="939" />
<glyph unicode="&#xe01d;" d="M768 85.334c-19.627 0-39.36 6.72-55.467 20.587l-243.2 208.32-243.093-208.32c-35.733-30.72-89.707-26.56-120.32 9.28-30.72 35.733-26.56 89.707 9.28 120.32l298.667 256c32 27.413 79.147 27.413 111.040 0l298.667-256c35.733-30.72 39.893-84.587 9.28-120.32-16.96-19.733-40.853-29.867-64.853-29.867z" horiz-adv-x="939" />
<glyph unicode="&#xe01e;" d="M913.707 280.96l-256-256c-16.747-16.64-38.507-24.96-60.373-24.96s-43.627 8.32-60.373 24.96c-33.28 33.28-33.28 87.36 0 120.64l110.4 110.4h-476.693c-47.147 0-85.333 38.187-85.333 85.333s38.187 85.333 85.333 85.333h476.693l-110.4 110.293c-33.28 33.28-33.28 87.36 0 120.64s87.36 33.28 120.64 0l256-256c33.387-33.28 33.387-87.253 0.107-120.64z" />
<glyph unicode="&#xe01f;" d="M110.293 400.64l256 256c33.28 33.28 87.36 33.28 120.64 0s33.28-87.36 0-120.64l-110.293-110.4h476.693c47.147 0 85.333-38.187 85.333-85.333s-38.187-85.333-85.333-85.333h-476.693l110.293-110.293c33.28-33.28 33.28-87.36 0-120.64-16.64-16.747-38.4-25.067-60.267-25.067s-43.627 8.32-60.373 24.96l-256 256c-33.28 33.387-33.28 87.36 0 120.747z" />
<glyph unicode="&#xe020;" d="M512 426.667h-426.667l213.333 341.333zM85.333 256h426.667l-213.333-341.333z" horiz-adv-x="597" />
<glyph unicode="&#xe021;" d="M1280 853.334v-768c0-47.147-38.187-85.333-85.333-85.333h-1024c-47.147 0-85.333 38.187-85.333 85.333v768c0 47.147 38.187 85.333 85.333 85.333h1024c47.147 0 85.333-38.187 85.333-85.333zM512 682.667h170.667v170.667h-170.667v-170.667zM256 682.667h170.667v170.667h-170.667v-170.667zM1194.667 597.334h-1024v-512h1024v512z" horiz-adv-x="1365" />
<glyph unicode="&#xe022;" d="M1280 853.334v-768c0-47.147-38.187-85.333-85.333-85.333h-1024c-47.147 0-85.333 38.187-85.333 85.333v768c0 47.147 38.187 85.333 85.333 85.333h1024c47.147 0 85.333-38.187 85.333-85.333zM1194.667 512h-1024v-426.667h1024v426.667zM1194.667 853.334h-1024v-170.667h1024v170.667z" horiz-adv-x="1365" />
<glyph unicode="&#xe023;" d="M170.667 682.667h853.333l-85.333-682.667c0-94.293-76.373-170.667-170.667-170.667h-341.333c-94.293 0-170.667 76.373-170.667 170.667l-85.333 682.667zM1109.333 768v0h-1024c0 94.293 76.373 170.667 170.667 170.667h149.333v64c0 25.92 5.12 50.987 15.147 74.773 9.707 22.827 23.467 43.413 41.067 61.013s38.080 31.467 61.013 41.067c23.787 10.027 48.853 15.147 74.773 15.147s50.987-5.12 74.773-15.147c22.827-9.707 43.413-23.467 61.013-41.067s31.467-38.080 41.067-61.013c10.027-23.787 15.147-48.853 15.147-74.773v-64h149.333c94.293 0 170.667-76.373 170.667-170.667zM512 938.667h170.667v64c0 47.147-38.187 85.333-85.333 85.333s-85.333-38.187-85.333-85.333v-64z" horiz-adv-x="1195" />
</font>
</defs>
</svg>
