<?xml version="1.0" standalone="no"?>
<!DOCTYPE svg PUBLIC "-//W3C//DTD SVG 1.1//EN" "http://www.w3.org/Graphics/SVG/1.1/DTD/svg11.dtd" >
<svg xmlns="http://www.w3.org/2000/svg">
<metadata>Generated by IcoMoon</metadata>
<defs>
<font id="ui-kit-16" horiz-adv-x="1024">
<font-face units-per-em="1024" ascent="960" descent="-64" />
<missing-glyph horiz-adv-x="1024" />
<glyph unicode="&#x20;" d="" horiz-adv-x="512" />
<glyph unicode="&#xe500;" d="M640 960.32l120.853-390.72h391.147l-316.48-242.24 120.853-391.147-316.373 241.387-316.48-241.6 120.853 391.467-316.373 242.133h391.147l120.853 390.72z" horiz-adv-x="1280" />
<glyph unicode="&#xe501;" d="M448 384h-192v192h192v-192zM448 320h-192v-192h192v192zM768 576h-256v-64h256v64zM768 448h-256v-64h256v64zM768 320h-256v-64h256v64zM768 192h-256v-64h256v64zM832 320v-256h-640v576h320v64h-384v-704h768v320h-64zM1216 768h-256v256h-64v-256h-256v-64h256v-256h64v256h256v64z" />
<glyph unicode="&#xe502;" d="M1088 896h-64c0 106.027-85.973 192-192 192h-256c-106.027 0-192-85.973-192-192h-64c-106.027 0-192-85.973-192-192v-512c0-106.027 85.973-192 192-192h768c106.027 0 192 85.973 192 192v512c0 106.027-85.973 192-192 192zM704 192c-176.747 0-320 143.253-320 320s143.253 320 320 320 320-143.253 320-320-143.253-320-320-320zM704 320c-106.027 0-192 85.973-192 192s85.973 192 192 192 192-85.973 192-192-85.973-192-192-192z" horiz-adv-x="1408" />
<glyph unicode="&#xe503;" d="M1056 833.067c42.773 0 82.88-16.64 113.173-46.827s46.827-70.293 46.827-113.067c0-19.733-3.52-38.933-10.453-56.96-6.72-17.493-16.427-33.6-28.907-47.893-0.32-0.427-0.747-0.853-1.067-1.28-208.213-238.827-287.787-330.133-345.813-396.8-21.44-24.64-40.32-46.293-61.867-71.040l-19.947 22.827-387.733 445.227c-0.32 0.427-0.64 0.747-0.96 1.173-12.48 14.293-22.187 30.4-28.8 47.893-6.933 18.027-10.453 37.227-10.453 56.96 0 42.667 16.64 82.88 46.827 113.067s70.4 46.72 113.173 46.72c26.56 0 51.627-6.187 74.773-18.453 22.293-11.84 41.707-28.907 56.213-49.6 35.947-50.987 94.507-81.387 157.013-81.387s121.067 30.4 157.013 81.387c14.613 20.693 34.027 37.867 56.213 49.6 23.147 12.267 48.213 18.453 74.773 18.453zM1056 1024.853c-119.040 0-224.32-59.093-288-149.44-63.68 90.453-168.96 149.44-288 149.44-194.453 0-352-157.44-352-351.573 0-88.32 32.64-169.067 86.507-230.827v0c334.72-384.213 334.933-384.533 456.533-524.053 0.107-0.107 0.107-0.747 0.213-0.853 0 0 0.107-0.747 0.107-0.747v0c23.467-26.667 58.027-43.947 96.533-43.947s73.067 17.28 96.533 43.947v0c0.107 0 0.107 0.747 0.213 0.747 0.107 0.107 0.107 0.427 0.213 0.533 121.6 139.413 121.92 140.053 456.747 524.16v0c53.867 61.76 86.507 142.507 86.507 230.933-0.107 194.24-157.653 351.68-352.107 351.68v0z" horiz-adv-x="1536" />
<glyph unicode="&#xe504;" d="M864 833.067c42.773 0 82.88-16.64 113.173-46.827s46.827-70.293 46.827-113.067c0-19.733-3.52-38.933-10.453-56.96-6.72-17.493-16.427-33.6-28.907-47.893-0.32-0.427-0.747-0.853-1.067-1.28-208.213-238.827-287.787-330.133-345.813-396.8-21.44-24.64-40.32-46.293-61.867-71.040l-19.947 22.827-387.733 445.227c-0.32 0.427-0.64 0.747-0.96 1.173-12.48 14.293-22.187 30.4-28.8 47.893-6.933 18.027-10.453 37.227-10.453 56.96 0 42.667 16.64 82.88 46.827 113.067s70.4 46.72 113.173 46.72c26.56 0 51.627-6.187 74.773-18.453 22.293-11.84 41.707-28.907 56.213-49.6 35.947-50.987 94.507-81.387 157.013-81.387s121.067 30.4 157.013 81.387c14.613 20.693 34.027 37.867 56.213 49.6 23.147 12.267 48.213 18.453 74.773 18.453z" horiz-adv-x="1152" />
<glyph unicode="&#xe505;" d="M703.467 896c51.84 0 102.080-10.133 149.227-30.080 45.653-19.307 86.72-46.933 121.92-82.24 35.307-35.307 62.933-76.267 82.24-121.92 19.947-47.147 30.080-97.387 30.080-149.227 0-51.307-9.92-101.12-29.547-147.84l-24.64-58.773 40.853-163.52-163.52 40.853-58.773-24.64c-46.827-19.627-96.533-29.547-147.84-29.547-51.84 0-102.080 10.133-149.227 30.080-45.653 19.307-86.72 46.933-121.92 82.24-35.307 35.307-62.933 76.267-82.24 121.92-19.947 47.147-30.080 97.387-30.080 149.227s10.133 102.080 30.080 149.227c19.307 45.653 46.933 86.72 82.24 121.92 35.307 35.307 76.267 62.933 121.92 82.24 47.147 19.947 97.387 30.080 149.227 30.080zM703.467 1088c-317.867 0-575.467-257.6-575.467-575.467s257.6-575.467 575.467-575.467c78.72 0 153.707 15.787 221.973 44.373 0 0 307.947-75.84 316.907-75.84 50.56 0 78.613 38.933 64.107 96.96l-72 287.893c28.587 68.267 44.373 143.36 44.373 221.973 0.107 317.973-257.493 575.573-575.36 575.573v0z" horiz-adv-x="1408" />
<glyph unicode="&#xe506;" d="M512 512c0-106.027-85.973-192-192-192s-192 85.973-192 192 85.973 192 192 192 192-85.973 192-192zM832 704c-106.027 0-192-85.973-192-192s85.973-192 192-192 192 85.973 192 192-85.973 192-192 192zM1344 704c-106.027 0-192-85.973-192-192s85.973-192 192-192 192 85.973 192 192-85.973 192-192 192z" horiz-adv-x="1664" />
<glyph unicode="&#xe507;" d="M1280 64h-1152v128h1152v-128zM1280 576h-1152v-128h1152v128zM1280 960h-1152v-128h1152v128z" horiz-adv-x="1408" />
<glyph unicode="&#xe508;" d="M1197.227 45.227l-224 224c-15.147 15.147-35.947 21.12-55.573 17.92l-30.507 30.507c84.373 81.493 136.853 195.733 136.853 322.347 0 247.467-200.533 448-448 448s-448-200.533-448-448 200.533-448 448-448c93.867 0 181.013 28.907 253.013 78.187l35.84-35.84c-3.2-19.627 2.773-40.427 17.92-55.573l224-224c12.48-12.48 28.907-18.773 45.227-18.773s32.747 6.293 45.227 18.773c25.067 24.96 25.067 65.493 0 90.453zM576 320c-43.307 0-85.12 8.427-124.48 25.067-38.080 16.107-72.32 39.253-101.76 68.587-29.44 29.44-52.48 63.68-68.587 101.76-16.747 39.467-25.173 81.28-25.173 124.587s8.427 85.12 25.067 124.48c16.107 38.080 39.253 72.32 68.587 101.76 29.44 29.44 63.68 52.48 101.76 68.587 39.467 16.747 81.28 25.173 124.587 25.173s85.12-8.427 124.48-25.067c38.080-16.107 72.32-39.253 101.76-68.587 29.44-29.44 52.48-63.68 68.587-101.76 16.747-39.467 25.173-81.28 25.173-124.587s-8.427-85.12-25.067-124.48c-16.107-38.080-39.253-72.32-68.587-101.76-29.44-29.44-63.68-52.48-101.76-68.587-39.467-16.747-81.28-25.173-124.587-25.173z" horiz-adv-x="1344" />
<glyph unicode="&#xe509;" d="M1152 208v-96c0-26.56-21.44-48-48-48h-336c0-70.72-57.28-128-128-128s-128 57.28-128 128h-336c-26.56 0-48 21.44-48 48v96c0 26.56 21.44 48 48 48h80v384c0 176.747 143.253 320 320 320v64c0 35.307 28.693 64 64 64v0c35.307 0 64-28.693 64-64v-64c176.747 0 320-143.253 320-320v-384h80c26.56 0 48-21.44 48-48z" horiz-adv-x="1280" />
<glyph unicode="&#xe50a;" d="M587.733 188.16c-37.333-37.333-98.453-37.333-135.787 0l-135.787 135.68c-37.333 37.333-37.333 98.453 0 135.787l472.32 472.32c37.333 37.333 98.453 37.333 135.787 0l135.787-135.787c37.333-37.333 37.333-98.453 0-135.787l-472.32-472.213zM449.493 49.813l-271.573 271.467-113.92-385.387 385.493 113.92z" horiz-adv-x="1152" />
<glyph unicode="&#xe50b;" d="M1150.933 747.947c0-90.133-35.84-176.64-99.627-240.427l-136-135.893c-63.68-63.787-150.187-99.627-240.32-99.627s-176.64 35.84-240.427 99.627c-24.747 24.747-45.227 52.8-61.013 83.2 0 0 132.693 117.867 135.787 118.827 2.133-9.067 4.907-17.92 8.533-26.667 8.533-20.693 21.013-39.253 36.8-55.147 15.893-15.893 34.453-28.267 55.147-36.8s42.667-12.907 65.067-12.907 44.373 4.373 65.067 12.907c20.693 8.533 39.253 21.013 55.147 36.8l136 136c15.893 15.893 28.267 34.453 36.8 55.147s12.907 42.667 12.907 65.067-4.373 44.373-12.907 65.067c-8.533 20.693-21.013 39.253-36.8 55.147-15.893 15.893-34.453 28.267-55.147 36.8s-42.667 12.907-65.067 12.907-44.373-4.373-65.067-12.907c-20.693-8.533-39.253-21.013-55.147-36.8l-9.707-9.707c-45.547 16.96-93.227 25.6-142.080 25.6-27.413 0-54.4-2.667-80.96-8.107l112.64 112.32c63.68 63.787 150.187 99.627 240.32 99.627s176.64-35.84 240.427-99.627c63.787-63.68 99.627-150.187 99.627-240.427zM532.907 229.547l-9.707-9.707c-15.893-15.893-34.453-28.267-55.147-36.8s-42.667-12.907-65.067-12.907c-22.4 0-44.373 4.373-65.067 12.907s-39.253 21.013-55.147 36.8c-15.893 15.893-28.267 34.453-36.8 55.147s-12.907 42.667-12.907 65.067 4.373 44.373 12.907 65.067c8.533 20.693 21.013 39.253 36.8 55.147l136 136c15.893 15.893 34.453 28.267 55.147 36.8s42.667 12.907 65.067 12.907c22.4 0 44.373-4.373 65.067-12.907s39.253-21.013 55.147-36.8c15.893-15.893 28.267-34.453 36.8-55.147 3.627-8.747 6.4-17.6 8.533-26.667 3.2 0.96 135.787 118.827 135.787 118.827-15.893 30.4-36.373 58.56-61.013 83.2-63.68 63.68-150.187 99.52-240.427 99.52s-176.64-35.84-240.427-99.627l-135.893-136c-63.787-63.68-99.627-150.187-99.627-240.32s35.84-176.64 99.627-240.427c63.787-63.787 150.293-99.627 240.427-99.627s176.64 35.84 240.427 99.627l112.533 112.533c-26.453-5.333-53.547-8.107-80.96-8.107-48.853-0.107-96.533 8.533-142.080 25.493z" horiz-adv-x="1216" />
<glyph unicode="&#xe50c;" d="M1277.333 1031.040c-71.147 114.773-148.48 127.893-200.853 118.613-16.427-2.88-35.093-8.96-52.373-19.52l-727.467-445.973c-19.413 8.213-40.747 10.987-63.68 6.933-85.547-15.147-118.827-111.68-99.733-220.16s87.147-187.2 168.64-172.8c23.36 4.16 43.093 15.040 58.88 31.147l98.56-17.92c-7.893-32.747-9.387-67.733-3.2-103.040 24-137.067 154.027-228.587 290.453-204.48 111.253 19.733 192.427 110.4 205.333 217.6l238.187-43.413c20.907-4.053 40.107-3.307 56.853-0.427 52.907 9.387 121.813 48.32 149.227 180.693 18.347 88.64 15.36 208-8.747 345.28-24 136.64-61.973 249.92-110.080 327.467zM831.36 161.707c-24-34.453-59.947-57.493-101.12-64.747s-82.773 1.92-117.12 26.133c-34.24 24.107-57.173 60.267-64.427 101.653-4.16 23.573-2.88 47.36 3.307 69.76l307.093-56c-2.24-27.413-11.733-53.76-27.733-76.8zM1330.56 373.44c-12.053-76.16-39.253-118.507-80.533-125.76-41.28-7.36-81.173 23.36-118.613 91.307-38.933 70.507-71.36 175.253-93.653 302.827-22.293 126.933-27.2 236.48-14.293 316.8 6.293 38.933 16.533 69.653 30.613 91.2 13.227 20.267 29.333 31.787 49.173 35.307 19.947 3.52 39.040-1.707 58.24-16.107 20.48-15.253 40.533-40.32 59.627-74.667 39.36-70.827 72.107-175.68 94.507-303.36 22.293-128.427 27.52-238.187 14.933-317.547z" horiz-adv-x="1536" />
<glyph unicode="&#xe50d;" d="M576 960h128v-1024h-128v1024zM128 512h1024v-128h-1024v128z" horiz-adv-x="1280" />
<glyph unicode="&#xe50e;" d="M602.56 448l338.773-338.773-90.56-90.56-338.773 338.773-338.773-338.667-90.56 90.56 338.773 338.667-338.667 338.773 90.56 90.56 338.667-338.773 338.773 338.667 90.56-90.56-338.773-338.667z" />
<glyph unicode="&#xe50f;" d="M1088 384h-741.547l338.773-338.773-90.56-90.56-493.227 493.227 493.333 493.333 90.56-90.56-338.773-338.667h741.44v-128z" horiz-adv-x="1216" />
<glyph unicode="&#xe510;" d="M320 832l768-384-768-384 256 384-256 384zM320.107 1024c-53.76 0-106.667-22.613-144-64.96-57.6-65.28-64.107-161.173-15.787-233.6l184.96-277.44-185.067-277.547c-48.32-72.427-41.813-168.32 15.787-233.6 37.44-42.347 90.24-64.96 144-64.96 29.12 0 58.453 6.613 85.76 20.267l768 384c65.067 32.533 106.133 98.987 106.133 171.733s-41.067 139.2-106.133 171.733l-768 384c-27.2 13.76-56.64 20.373-85.653 20.373v0z" horiz-adv-x="1344" />
<glyph unicode="&#xe511;" d="M576-32c-24.533 0-49.173 9.387-67.84 28.16l-320 320c-37.44 37.44-37.44 98.24 0 135.787 37.44 37.44 98.24 37.44 135.787 0l252.053-252.16 636.16 636.16c37.44 37.44 98.24 37.44 135.787 0 37.44-37.44 37.44-98.24 0-135.787l-704-704c-18.773-18.773-43.413-28.16-67.947-28.16z" horiz-adv-x="1472" />
<glyph unicode="&#xe512;" d="M1056 1024.853c-119.040 0-224.32-59.093-288-149.44-63.68 90.453-168.96 149.44-288 149.44-194.453 0-352-157.44-352-351.573 0-88.32 32.64-169.067 86.507-230.827v0c334.72-384.213 334.933-384.533 456.533-524.053 0.107-0.107 0.107-0.747 0.213-0.853 0 0 0.107-0.747 0.107-0.747v0c23.467-26.667 58.027-43.947 96.533-43.947s73.067 17.28 96.533 43.947v0c0.107 0 0.107 0.747 0.213 0.747 0.107 0.107 0.107 0.427 0.213 0.533 121.6 139.413 121.92 140.053 456.747 524.16v0c53.867 61.76 86.507 142.507 86.507 230.933-0.107 194.24-157.653 351.68-352.107 351.68v0z" horiz-adv-x="1536" />
<glyph unicode="&#xe513;" d="M128 960h192v-192h-192v192zM384 768h192v192h-192v-192zM640 768h192v192h-192v-192zM128 512h192v192h-192v-192zM384 512h192v192h-192v-192zM896 704v-192h192v192h-192zM128 256h192v192h-192v-192zM640 256h192v192h-192v-192zM896 256h192v192h-192v-192zM384 0h192v192h-192v-192zM640 0h192v192h-192v-192zM896 0h192v192h-192v-192z" horiz-adv-x="1216" />
<glyph unicode="&#xe514;" d="M1024 736v288h-192v-144l-192 144-512-384v-64h64v-576h896v576h64v64l-128 96zM1024 64h-256v384h-256v-384h-256v592l384 288 384-288v-592z" horiz-adv-x="1280" />
<glyph unicode="&#xe515;" d="M512 512c60.587 0 116.16 21.013 160 56.213 43.84-35.093 99.413-56.213 160-56.213 141.333 0 256 114.667 256 256s-114.667 256-256 256c-60.587 0-116.16-21.013-160-56.213-43.84 35.2-99.413 56.213-160 56.213-141.333 0-256-114.667-256-256s114.667-256 256-256zM967.787 903.787c36.267-36.267 56.213-84.48 56.213-135.787s-19.947-99.52-56.213-135.787-84.48-56.213-135.787-56.213c-42.133 0-82.133 13.44-115.2 38.4 32.107 42.773 51.2 96 51.2 153.6s-19.093 110.827-51.2 153.6c33.067 24.853 73.067 38.4 115.2 38.4 51.307 0 99.52-19.947 135.787-56.213zM1088 384h-832c-70.72 0-128-57.28-128-128v-320h1088v320c0 70.72-57.28 128-128 128zM1152 0h-256v256c0 23.36-6.187 45.12-17.173 64h209.173c35.307 0 64-28.693 64-64v-256z" horiz-adv-x="1344" />
<glyph unicode="&#xe516;" d="M384 896c0-70.72-57.28-128-128-128s-128 57.28-128 128 57.28 128 128 128 128-57.28 128-128zM640 1024c-70.72 0-128-57.28-128-128s57.28-128 128-128 128 57.28 128 128-57.28 128-128 128zM1024 1024c-70.72 0-128-57.28-128-128s57.28-128 128-128 128 57.28 128 128-57.28 128-128 128zM256 640c-70.72 0-128-57.28-128-128s57.28-128 128-128 128 57.28 128 128-57.28 128-128 128zM640 640c-70.72 0-128-57.28-128-128s57.28-128 128-128 128 57.28 128 128-57.28 128-128 128zM1024 640c-70.72 0-128-57.28-128-128s57.28-128 128-128 128 57.28 128 128-57.28 128-128 128zM256 256c-70.72 0-128-57.28-128-128s57.28-128 128-128 128 57.28 128 128-57.28 128-128 128zM640 256c-70.72 0-128-57.28-128-128s57.28-128 128-128 128 57.28 128 128-57.28 128-128 128zM1024 256c-70.72 0-128-57.28-128-128s57.28-128 128-128 128 57.28 128 128-57.28 128-128 128z" horiz-adv-x="1280" />
<glyph unicode="&#xe517;" d="M1216 960h-1024c-35.307 0-64-28.693-64-64v-832c0-35.307 28.693-64 64-64h512l256-256v256h256c35.307 0 64 28.693 64 64v832c0 35.307-28.693 64-64 64zM1152 128h-896v704h896v-704zM1088 640h-768v64h768v-64zM1088 448h-768v64h768v-64zM1088 256h-768v64h768v-64z" horiz-adv-x="1408" />
<glyph unicode="&#xe518;" d="M256 960v-128h-128v-832h896v128h128v832h-896zM960 64h-768v704h64v-640h704v-64zM1088 192h-768v704h768v-704zM576 640h-192v192h192v-192zM576 384h-192v192h192v-192zM1024 768h-384v64h384v-64zM1024 640h-384v64h384v-64zM1024 512h-384v64h384v-64zM1024 384h-384v64h384v-64zM1024 256h-640v64h640v-64z" horiz-adv-x="1280" />
<glyph unicode="&#xe519;" d="M960 896v-896h-704v896h704zM1088 1024h-960v-1152h960v1152zM832 768h-448v-128h448v128zM832 512h-448v-128h448v128zM832 256h-448v-128h448v128z" horiz-adv-x="1216" />
<glyph unicode="&#xe51a;" d="M1217.268 1088.667h-961.001c-70.794 0-128.133-57.34-128.133-128.133v-961.001c0-70.794 57.34-128.133 128.133-128.133h961.001c70.794 0 128.133 57.34 128.133 128.133v961.001c0 70.794-57.34 128.133-128.133 128.133zM448.467 255.8h-192.2v192.2h192.2v-192.2zM448.467 512.067h-192.2v192.2h192.2v-192.2zM448.467 768.334h-192.2v192.2h192.2v-192.2zM704.734-0.467h-192.2v192.2h192.2v-192.2zM704.734 512.067h-192.2v192.2h192.2v-192.2zM704.734 768.334h-192.2v192.2h192.2v-192.2zM961.001-0.467h-192.2v192.2h192.2v-192.2zM961.001 255.8h-192.2v192.2h192.2v-192.2zM961.001 768.334h-192.2v192.2h192.2v-192.2zM1217.268-0.467h-192.2v192.2h192.2v-192.2zM1217.268 255.8h-192.2v192.2h192.2v-192.2zM1217.268 512.067h-192.2v192.2h192.2v-192.2z" horiz-adv-x="1474" />
</font>
</defs>
</svg>
