<?xml version="1.0" encoding="utf-8"?>
<!-- Generator: Adobe Illustrator 18.1.1, SVG Export Plug-In . SVG Version: 6.00 Build 0)  -->
<svg version="1.1" id="logo_x5F_liferay" xmlns="http://www.w3.org/2000/svg" xmlns:xlink="http://www.w3.org/1999/xlink" x="0px"
	 y="0px" viewBox="0 0 19 19" enable-background="new 0 0 19 19" xml:space="preserve">
<path fill="#FFFFFF" d="M19,1v17c0,0.6-0.4,1-1,1H1c-0.6,0-1-0.4-1-1V1c0-0.6,0.4-1,1-1h17C18.6,0,19,0.4,19,1z M5,10H2v3h3V10z
	 M5,6H2v3h3V6z M5,2H2v3h3V2z M9,14H6v3h3V14z M9,6H6v3h3V6z M9,2H6v3h3V2z M13,14h-3v3h3V14z M13,10h-3v3h3V10z M13,2h-3v3h3V2z
	 M17,14h-3v3h3V14z M17,10h-3v3h3V10z M17,6h-3v3h3V6z"/>
</svg>
