<?xml version="1.0" encoding="utf-8"?>
<!-- Generator: Adobe Illustrator 18.1.1, SVG Export Plug-In . SVG Version: 6.00 Build 0)  -->
<svg version="1.1" xmlns="http://www.w3.org/2000/svg" xmlns:xlink="http://www.w3.org/1999/xlink" x="0px" y="0px"
	 viewBox="0 0 1120 960" enable-background="new 0 0 1120 960" xml:space="preserve">
<g id="arrow-left-rod">
</g>
<g id="arrow-right-rod">
</g>
<g id="arrow-up-short">
</g>
<g id="arrow-down-short">
</g>
<g id="heart-full">
</g>
<g id="balloon-comments-inline">
</g>
<g id="balloon-comments">
</g>
<g id="check">
</g>
<g id="balloon_x5F_topic">
</g>
<g id="persons">
</g>
<g id="groups">
</g>
<g id="building_x5F_big">
</g>
<g id="person_x5F_card_x5F_2">
</g>
<g id="person_x5F_card_x5F_3">
</g>
<g id="plus">
</g>
<g id="arrow_x5F_right_x5F_long">
</g>
<g id="arrow_x5F_left_x5F_long">
</g>
<g id="close_x5F_short">
</g>
<g id="hash">
</g>
<g id="people">
</g>
<g id="building_x5F_small">
</g>
<g id="person">
</g>
<g id="heart_x5F_inline">
</g>
<g id="close_x5F_long">
</g>
<g id="post">
</g>
<g id="star">
</g>
<g id="heart_x5F_outline">
</g>
<g id="link">
</g>
<g id="camera">
	<path d="M880,160h-80v0C800,71.6,728.4,0,640,0H480c-88.4,0-160,71.6-160,160v0h-80c-88.4,0-160,71.6-160,160v400
		c0,88.4,71.6,160,160,160h640c88.4,0,160-71.6,160-160V320C1040,231.6,968.4,160,880,160z M560,720c-132.5,0-240-107.5-240-240
		s107.5-240,240-240s240,107.5,240,240S692.5,720,560,720z M560,640c-88.4,0-160-71.6-160-160s71.6-160,160-160s160,71.6,160,160
		S648.4,640,560,640z"/>
</g>
<g id="balloon_x5F_text">
</g>
<g id="pin">
</g>
<g id="clock">
</g>
<g id="guide">
</g>
</svg>
