<?xml version="1.0" encoding="utf-8"?>
<!-- Generator: Adobe Illustrator 18.1.1, SVG Export Plug-In . SVG Version: 6.00 Build 0)  -->
<svg version="1.1" xmlns="http://www.w3.org/2000/svg" xmlns:xlink="http://www.w3.org/1999/xlink" x="0px" y="0px"
	 viewBox="0 0 1280 1280" enable-background="new 0 0 1280 1280" xml:space="preserve">
<g id="flag">
</g>
<g id="flag-small">
</g>
<g id="signpost">
</g>
<g id="info-card">
</g>
<g id="journal">
</g>
<g id="network">
</g>
<g id="trash">
</g>
<g id="card">
</g>
<g id="browser">
</g>
<g id="arrows">
</g>
<g id="arrow-left-rod">
</g>
<g id="arrow-right-rod">
</g>
<g id="arrow-up-short">
</g>
<g id="arrow-down-short">
</g>
<g id="briefcase">
</g>
<g id="balloon-comments-fill">
</g>
<g id="balloon-comments">
</g>
<g id="check">
</g>
<g id="balloon-topic">
</g>
<g id="persons">
</g>
<g id="groups">
</g>
<g id="link">
</g>
<g id="camera">
</g>
<g id="balloon-text">
</g>
<g id="building-big">
</g>
<g id="person-card-2">
</g>
<g id="person-card-3">
</g>
<g id="close-long">
</g>
<g id="star">
</g>
<g id="heart-fill">
</g>
<g id="heart">
</g>
<g id="plus">
</g>
<g id="arrow-right-long">
</g>
<g id="arrow-left-long">
</g>
<g id="close-short">
	<path d="M936.6,823.4c31.2,31.2,31.2,81.9,0,113.1C920.9,952.2,900.5,960,880,960s-40.9-7.8-56.6-23.4L640,753.1L456.6,936.6
		C440.9,952.2,420.5,960,400,960s-40.9-7.8-56.6-23.4c-31.2-31.2-31.2-81.9,0-113.1L526.9,640L343.4,456.6
		c-31.2-31.2-31.2-81.9,0-113.1s81.9-31.2,113.1,0L640,526.9l183.4-183.4c31.2-31.2,81.9-31.2,113.1,0s31.2,81.9,0,113.1L753.1,640
		L936.6,823.4z"/>
</g>
<g id="hash">
</g>
<g id="people">
</g>
<g id="building-small">
</g>
<g id="person">
</g>
<g id="post">
</g>
<g id="pin">
</g>
<g id="clock">
</g>
</svg>
