<?xml version="1.0" encoding="utf-8"?>
<!-- Generator: Adobe Illustrator 18.1.1, SVG Export Plug-In . SVG Version: 6.00 Build 0)  -->
<svg version="1.1" xmlns="http://www.w3.org/2000/svg" xmlns:xlink="http://www.w3.org/1999/xlink" x="0px" y="0px"
	 viewBox="0 0 1280 1280" enable-background="new 0 0 1280 1280" xml:space="preserve">
<g id="flag">
</g>
<g id="flag-small">
</g>
<g id="signpost">
</g>
<g id="info-card">
</g>
<g id="journal">
</g>
<g id="network">
</g>
<g id="trash">
</g>
<g id="card">
</g>
<g id="browser">
</g>
<g id="arrows">
</g>
<g id="arrow-left-rod">
</g>
<g id="arrow-right-rod">
</g>
<g id="arrow-up-short">
</g>
<g id="arrow-down-short">
</g>
<g id="briefcase">
</g>
<g id="balloon-comments-fill">
</g>
<g id="balloon-comments">
</g>
<g id="check">
</g>
<g id="balloon-topic">
</g>
<g id="persons">
</g>
<g id="groups">
	<path d="M480,280c0,66.3-53.7,120-120,120s-120-53.7-120-120s53.7-120,120-120S480,213.7,480,280z M680,160
		c-66.3,0-120,53.7-120,120s53.7,120,120,120s120-53.7,120-120S746.3,160,680,160z M1000,160c-66.3,0-120,53.7-120,120
		s53.7,120,120,120s120-53.7,120-120S1066.3,160,1000,160z M360,480c-66.3,0-120,53.7-120,120s53.7,120,120,120s120-53.7,120-120
		S426.3,480,360,480z M680,480c-66.3,0-120,53.7-120,120s53.7,120,120,120s120-53.7,120-120S746.3,480,680,480z M1000,480
		c-66.3,0-120,53.7-120,120s53.7,120,120,120s120-53.7,120-120S1066.3,480,1000,480z M360,800c-66.3,0-120,53.7-120,120
		s53.7,120,120,120s120-53.7,120-120S426.3,800,360,800z M680,800c-66.3,0-120,53.7-120,120s53.7,120,120,120s120-53.7,120-120
		S746.3,800,680,800z M1000,800c-66.3,0-120,53.7-120,120s53.7,120,120,120s120-53.7,120-120S1066.3,800,1000,800z"/>
</g>
<g id="link">
</g>
<g id="camera">
</g>
<g id="balloon-text">
</g>
<g id="building-big">
</g>
<g id="person-card-2">
</g>
<g id="person-card-3">
</g>
<g id="close-long">
</g>
<g id="star">
</g>
<g id="heart-fill">
</g>
<g id="heart">
</g>
<g id="plus">
</g>
<g id="arrow-right-long">
</g>
<g id="arrow-left-long">
</g>
<g id="close-short">
</g>
<g id="hash">
</g>
<g id="people">
</g>
<g id="building-small">
</g>
<g id="person">
</g>
<g id="post">
</g>
<g id="pin">
</g>
<g id="clock">
</g>
</svg>
