<?xml version="1.0" encoding="utf-8"?>
<!-- Generator: Adobe Illustrator 18.1.1, SVG Export Plug-In . SVG Version: 6.00 Build 0)  -->
<svg version="1.1" xmlns="http://www.w3.org/2000/svg" xmlns:xlink="http://www.w3.org/1999/xlink" x="0px" y="0px"
	 viewBox="0 0 1280 1280" enable-background="new 0 0 1280 1280" xml:space="preserve">
<g id="flag">
</g>
<g id="flag-small">
</g>
<g id="signpost">
</g>
<g id="info-card">
</g>
<g id="journal">
</g>
<g id="network">
</g>
<g id="trash">
</g>
<g id="card">
</g>
<g id="browser">
</g>
<g id="arrows">
</g>
<g id="arrow-left-rod">
</g>
<g id="arrow-right-rod">
</g>
<g id="arrow-up-short">
</g>
<g id="arrow-down-short">
</g>
<g id="briefcase">
</g>
<g id="balloon-comments-fill">
</g>
<g id="balloon-comments">
</g>
<g id="check">
</g>
<g id="balloon-topic">
</g>
<g id="persons">
</g>
<g id="groups">
</g>
<g id="link">
</g>
<g id="camera">
</g>
<g id="balloon-text">
</g>
<g id="building-big">
</g>
<g id="person-card-2">
</g>
<g id="person-card-3">
</g>
<g id="close-long">
</g>
<g id="star">
</g>
<g id="heart-fill">
</g>
<g id="heart">
	<path d="M680,1120c-60.5,0-117-26.9-155.1-73.8c-0.2-0.3-0.5-0.6-0.7-0.8L230.7,680.6c-0.3-0.4-0.6-0.7-0.9-1.1
		c-22-27.5-39.1-58.2-51-91.3C166.3,553.5,160,517.1,160,480c0-43.2,8.5-85.1,25.2-124.6c16.1-38.1,39.2-72.3,68.5-101.7
		c29.4-29.4,63.6-52.4,101.7-68.5C394.9,168.5,436.8,160,480,160c73.8,0,144,25.3,200,70.1c56-44.9,126.2-70.1,200-70.1
		c43.2,0,85.1,8.5,124.6,25.2c38.1,16.1,72.3,39.2,101.7,68.5c29.4,29.4,52.4,63.6,68.5,101.7c16.7,39.5,25.2,81.4,25.2,124.6
		c0,37.1-6.3,73.5-18.8,108.2c-11.9,33.1-29,63.8-51,91.3c-0.3,0.4-0.6,0.7-0.9,1.1l-293.5,364.8c-0.2,0.3-0.5,0.6-0.7,0.8
		C797,1093.1,740.5,1120,680,1120z M648.3,944.4c0.2,0.2,0.3,0.4,0.5,0.6c7.7,9.5,19,15,31.2,15s23.5-5.5,31.2-15
		c0.2-0.2,0.3-0.4,0.5-0.6l292.2-363.2c0.3-0.3,0.5-0.7,0.8-1c23.1-28.7,35.3-63.3,35.3-100.3c0-88.2-71.8-160-160-160
		c-53.7,0-103.6,26.8-133.4,71.6c-14.8,22.3-39.8,35.7-66.6,35.7s-51.8-13.4-66.6-35.7C583.6,346.8,533.7,320,480,320
		c-88.2,0-160,71.8-160,160c0,36.9,12.2,71.6,35.3,100.3c0.3,0.3,0.5,0.7,0.8,1L648.3,944.4z"/>
</g>
<g id="plus">
</g>
<g id="arrow-right-long">
</g>
<g id="arrow-left-long">
</g>
<g id="close-short">
</g>
<g id="hash">
</g>
<g id="people">
</g>
<g id="building-small">
</g>
<g id="person">
</g>
<g id="post">
</g>
<g id="pin">
</g>
<g id="clock">
</g>
</svg>
