<?xml version="1.0" encoding="utf-8"?>
<!-- Generator: Adobe Illustrator 18.1.1, SVG Export Plug-In . SVG Version: 6.00 Build 0)  -->
<svg version="1.1" xmlns="http://www.w3.org/2000/svg" xmlns:xlink="http://www.w3.org/1999/xlink" x="0px" y="0px"
	 viewBox="0 0 880 960" enable-background="new 0 0 880 960" xml:space="preserve">
<g id="arrow-left-rod">
</g>
<g id="arrow-right-rod">
</g>
<g id="arrow-up-short">
</g>
<g id="arrow-down-short">
</g>
<g id="heart-full">
</g>
<g id="balloon-comments-inline">
</g>
<g id="balloon-comments">
</g>
<g id="check">
</g>
<g id="balloon_x5F_topic">
</g>
<g id="persons">
</g>
<g id="groups">
</g>
<g id="building_x5F_big">
</g>
<g id="person_x5F_card_x5F_2">
</g>
<g id="person_x5F_card_x5F_3">
</g>
<g id="plus">
</g>
<g id="arrow_x5F_right_x5F_long">
</g>
<g id="arrow_x5F_left_x5F_long">
</g>
<g id="close_x5F_short">
</g>
<g id="hash">
</g>
<g id="people">
</g>
<g id="building_x5F_small">
</g>
<g id="person">
</g>
<g id="heart_x5F_inline">
	<path d="M408.3,784.4c0.2,0.2,0.3,0.4,0.5,0.6c7.7,9.5,19,15,31.2,15s23.5-5.5,31.2-15c0.2-0.2,0.3-0.4,0.5-0.6l292.2-363.2
		c0.3-0.3,0.5-0.7,0.8-1C787.8,391.6,800,356.9,800,320c0-88.2-71.8-160-160-160c-53.7,0-103.6,26.8-133.4,71.6
		c-14.8,22.3-39.8,35.7-66.6,35.7s-51.8-13.4-66.6-35.7C343.6,186.8,293.7,160,240,160c-88.2,0-160,71.8-160,160
		c0,36.9,12.2,71.6,35.3,100.3c0.3,0.3,0.5,0.7,0.8,1L408.3,784.4z"/>
</g>
<g id="close_x5F_long">
</g>
<g id="post">
</g>
<g id="star">
</g>
<g id="heart_x5F_outline">
</g>
<g id="link">
</g>
<g id="camera">
</g>
<g id="balloon_x5F_text">
</g>
<g id="pin">
</g>
<g id="clock">
</g>
<g id="guide">
</g>
</svg>
