<?xml version="1.0" encoding="utf-8"?>
<!-- Generator: Adobe Illustrator 18.1.1, SVG Export Plug-In . SVG Version: 6.00 Build 0)  -->
<svg version="1.1" xmlns="http://www.w3.org/2000/svg" xmlns:xlink="http://www.w3.org/1999/xlink" x="0px" y="0px"
	 viewBox="0 0 1280 1280" enable-background="new 0 0 1280 1280" xml:space="preserve">
<g id="flag">
</g>
<g id="flag-small">
</g>
<g id="signpost">
</g>
<g id="info-card">
</g>
<g id="journal">
</g>
<g id="network">
	<path d="M1120,640c0-116.4-41.4-223.1-110.4-306.2c19.1-26.4,30.4-58.7,30.4-93.8c0-88.4-71.6-160-160-160
		c-63.1,0-117.7,36.6-143.7,89.7c-31.1-6.3-63.3-9.7-96.3-9.7c-212.8,0-393.2,138.4-456.1,330.1C123.2,512.9,80,571.4,80,640
		s43.2,127.1,103.9,149.9C246.8,981.6,427.2,1120,640,1120c33,0,65.2-3.3,96.3-9.7c26,53.1,80.6,89.7,143.7,89.7
		c88.4,0,160-71.6,160-160c0-35-11.3-67.4-30.4-93.8C1078.6,863.1,1120,756.4,1120,640z M1008.6,795.7
		c-15.3,36.1-35.6,69.5-60.5,99.5c-20.7-9.7-43.7-15.2-68.1-15.2c-11,0-21.7,1.1-32.1,3.2C916.5,824.5,960,737.3,960,640
		s-43.5-184.5-112.1-243.2c10.4,2.1,21.1,3.2,32.1,3.2c24.3,0,47.4-5.4,68.1-15.2c25,30,45.3,63.4,60.5,99.5
		C1029.4,533.6,1040,586,1040,640S1029.4,746.4,1008.6,795.7z M809.7,470.3C855,515.6,880,575.9,880,640s-25,124.4-70.3,169.7
		S704.1,880,640,880s-124.4-25-169.7-70.3S400,704.1,400,640s25-124.4,70.3-169.7S575.9,400,640,400S764.4,425,809.7,470.3z
		 M357.2,357.2c36.8-36.8,79.5-65.6,127.2-85.8C533.6,250.6,586,240,640,240c27.2,0,54,2.7,80.2,8c1.8,35.6,15.2,68.2,36.5,93.9
		C720.5,327.8,681.2,320,640,320c-133.7,0-248.2,82-296.1,198.4c-20.3-17.3-44.9-29.7-72-35.2C292,436,320.7,393.6,357.2,357.2z
		 M484.3,1008.6c-47.6-20.1-90.4-49-127.2-85.8c-36.5-36.5-65.1-78.9-85.3-126c27.1-5.5,51.8-17.9,72-35.2
		C391.8,878,506.3,960,640,960c41.2,0,80.5-7.8,116.7-21.9c-21.3,25.8-34.7,58.3-36.5,93.9c-26.2,5.3-53,8-80.2,8
		C586,1040,533.6,1029.4,484.3,1008.6z M480,640c0,88.4,71.6,160,160,160s160-71.6,160-160s-71.6-160-160-160S480,551.6,480,640z
		 M720,640c0,44.1-35.9,80-80,80s-80-35.9-80-80s35.9-80,80-80S720,595.9,720,640z"/>
</g>
<g id="trash">
</g>
<g id="card">
</g>
<g id="browser">
</g>
<g id="arrows">
</g>
<g id="arrow-left-rod">
</g>
<g id="arrow-right-rod">
</g>
<g id="arrow-up-short">
</g>
<g id="arrow-down-short">
</g>
<g id="briefcase">
</g>
<g id="balloon-comments-fill">
</g>
<g id="balloon-comments">
</g>
<g id="check">
</g>
<g id="balloon-topic">
</g>
<g id="persons">
</g>
<g id="groups">
</g>
<g id="link">
</g>
<g id="camera">
</g>
<g id="balloon-text">
</g>
<g id="building-big">
</g>
<g id="person-card-2">
</g>
<g id="person-card-3">
</g>
<g id="close-long">
</g>
<g id="star">
</g>
<g id="heart-fill">
</g>
<g id="heart">
</g>
<g id="plus">
</g>
<g id="arrow-right-long">
</g>
<g id="arrow-left-long">
</g>
<g id="close-short">
</g>
<g id="hash">
</g>
<g id="people">
</g>
<g id="building-small">
</g>
<g id="person">
</g>
<g id="post">
</g>
<g id="pin">
</g>
<g id="clock">
</g>
</svg>
