<?xml version="1.0" encoding="utf-8"?>
<!-- Generator: Adobe Illustrator 18.1.1, SVG Export Plug-In . SVG Version: 6.00 Build 0)  -->
<svg version="1.1" xmlns="http://www.w3.org/2000/svg" xmlns:xlink="http://www.w3.org/1999/xlink" x="0px" y="0px"
	 viewBox="0 0 1280 1280" enable-background="new 0 0 1280 1280" xml:space="preserve">
<g id="flag">
</g>
<g id="flag-small">
</g>
<g id="signpost">
</g>
<g id="info-card">
</g>
<g id="journal">
</g>
<g id="network">
</g>
<g id="trash">
</g>
<g id="card">
</g>
<g id="browser">
</g>
<g id="arrows">
</g>
<g id="arrow-left-rod">
</g>
<g id="arrow-right-rod">
</g>
<g id="arrow-up-short">
</g>
<g id="arrow-down-short">
</g>
<g id="briefcase">
</g>
<g id="balloon-comments-fill">
</g>
<g id="balloon-comments">
</g>
<g id="check">
</g>
<g id="balloon-topic">
</g>
<g id="persons">
	<path d="M961,721H657.9c-5.9-0.7-11.8-1-17.9-1H320c-88.4,0-160,71.6-160,160v160h320v1h640V880C1120,791.6,1049.4,721,961,721z
		 M1040,961H800v-81c0-28.7-7.6-55.7-20.8-79H961c21.4,0,41.1,8,56.1,22.9s22.9,34.7,22.9,56.1V961z M480,640
		c61.7,0,118-23.3,160.5-61.6C683,616.7,739.3,640,801,640c132.5,0,240-107.5,240-240S933.5,160,801,160
		c-61.7,0-118,23.3-160.5,61.6C598,183.3,541.7,160,480,160c-132.5,0-240,107.5-240,240S347.5,640,480,640z M914.1,286.9
		C944.4,317.1,961,357.3,961,400c0,42.7-16.6,82.9-46.9,113.1S843.7,560,801,560c-41.6,0-80.7-15.7-110.6-44.4
		C709.2,481.3,720,441.9,720,400c0-41.9-10.8-81.3-29.6-115.6C720.3,255.7,759.4,240,801,240C843.7,240,883.9,256.6,914.1,286.9z"/>
</g>
<g id="groups">
</g>
<g id="link">
</g>
<g id="camera">
</g>
<g id="balloon-text">
</g>
<g id="building-big">
</g>
<g id="person-card-2">
</g>
<g id="person-card-3">
</g>
<g id="close-long">
</g>
<g id="star">
</g>
<g id="heart-fill">
</g>
<g id="heart">
</g>
<g id="plus">
</g>
<g id="arrow-right-long">
</g>
<g id="arrow-left-long">
</g>
<g id="close-short">
</g>
<g id="hash">
</g>
<g id="people">
</g>
<g id="building-small">
</g>
<g id="person">
</g>
<g id="post">
</g>
<g id="pin">
</g>
<g id="clock">
</g>
</svg>
