<?xml version="1.0" encoding="utf-8"?>
<!-- Generator: Adobe Illustrator 18.1.1, SVG Export Plug-In . SVG Version: 6.00 Build 0)  -->
<svg version="1.1" xmlns="http://www.w3.org/2000/svg" xmlns:xlink="http://www.w3.org/1999/xlink" x="0px" y="0px"
	 viewBox="0 0 1120 960" enable-background="new 0 0 1120 960" xml:space="preserve">
<g id="arrow-left-rod">
</g>
<g id="arrow-right-rod">
</g>
<g id="arrow-up-short">
</g>
<g id="arrow-down-short">
</g>
<g id="heart-full">
</g>
<g id="balloon-comments-inline">
</g>
<g id="balloon-comments">
</g>
<g id="check">
</g>
<g id="balloon_x5F_topic">
</g>
<g id="persons">
</g>
<g id="groups">
</g>
<g id="building_x5F_big">
</g>
<g id="person_x5F_card_x5F_2">
	<path d="M880,160C880,71.6,808.4,0,720,0H240C151.6,0,80,71.6,80,160v480c0,88.4,71.6,160,160,160c0,88.4,71.6,160,160,160h80h320
		h80c88.4,0,160-71.6,160-160V320C1040,231.6,968.4,160,880,160z M160,640V160c0-44.1,35.9-80,80-80h480c44.1,0,80,35.9,80,80H400
		c-88.4,0-160,71.6-160,160v400C195.9,720,160,684.1,160,640z M960,800c0,44.1-35.9,80-80,80h-80V720H480v160h-80
		c-44.1,0-80-35.9-80-80v-80V320c0-44.1,35.9-80,80-80h400h80c44.1,0,80,35.9,80,80V800z M800,480c0,88.4-71.6,160-160,160
		s-160-71.6-160-160c0-88.4,71.6-160,160-160S800,391.6,800,480z"/>
</g>
<g id="person_x5F_card_x5F_3">
</g>
<g id="plus">
</g>
<g id="arrow_x5F_right_x5F_long">
</g>
<g id="arrow_x5F_left_x5F_long">
</g>
<g id="close_x5F_short">
</g>
<g id="hash">
</g>
<g id="people">
</g>
<g id="building_x5F_small">
</g>
<g id="person">
</g>
<g id="heart_x5F_inline">
</g>
<g id="close_x5F_long">
</g>
<g id="post">
</g>
<g id="star">
</g>
<g id="heart_x5F_outline">
</g>
<g id="link">
</g>
<g id="camera">
</g>
<g id="balloon_x5F_text">
</g>
<g id="pin">
</g>
<g id="clock">
</g>
<g id="guide">
</g>
</svg>
