<?xml version="1.0" encoding="utf-8"?>
<!-- Generator: Adobe Illustrator 18.1.1, SVG Export Plug-In . SVG Version: 6.00 Build 0)  -->
<svg version="1.1" xmlns="http://www.w3.org/2000/svg" xmlns:xlink="http://www.w3.org/1999/xlink" x="0px" y="0px"
	 viewBox="0 0 1440 1440" enable-background="new 0 0 1440 1440" xml:space="preserve">
<g id="dribbble">
</g>
<g id="globe">
	<path fill-rule="evenodd" clip-rule="evenodd" d="M720,240c-265.1,0-480,214.9-480,480s214.9,480,480,480s480-214.9,480-480
		S985.1,240,720,240z M1051.8,860.1c-18.1,42.9-44.1,81.4-77.2,114.5c-33.1,33.1-71.6,59.1-114.5,77.2c-6.6,2.8-13.3,5.4-20.1,7.8
		V959c33.1,0,60-26.9,60-60v-60c33.1,0,60-26.9,60-60s-26.9-60-60-60h-60c-33.1,0-60,26.9-60,60H660v-60h-60v60
		c0,33.1,26.9,60,60,60v60c0,33.1,26.9,60,60,60v120h27.2c-9,0.7-18.1,1-27.2,1c-48.7,0-95.8-9.5-140.1-28.2
		c-42.9-18.1-81.4-44.1-114.5-77.2c-33.1-33.1-59.1-71.6-77.2-114.5C369.5,815.8,360,768.7,360,720c0-0.3,0-0.7,0-1h240
		c33.1,0,60-26.9,60-60v-60h60c33.1,0,60-26.9,60-60s-26.9-60-60-60h-30c16.6,0,30-13.4,30-30s-13.4-30-30-30h-30
		c0-20.2-10-38-25.2-48.9C662.5,363.4,691,360,720,360c48.7,0,95.8,9.5,140.1,28.2c42.9,18.1,81.4,44.1,114.5,77.2
		c33.1,33.1,59.1,71.6,77.2,114.5c18.7,44.3,28.2,91.4,28.2,140.1S1070.5,815.8,1051.8,860.1z"/>
</g>
<g id="github">
</g>
<g id="facebook">
</g>
<g id="twitter">
</g>
<g id="skype">
</g>
<g id="phone">
</g>
<g id="mail">
</g>
<g id="liferay-logo-2">
</g>
<g id="menu-content">
</g>
<g id="streams">
</g>
<g id="balloon-topic">
</g>
<g id="groups">
</g>
<g id="persons">
</g>
<g id="house">
</g>
<g id="liferay-logo">
</g>
<g id="eye">
</g>
<g id="confirm">
</g>
<g id="send">
</g>
<g id="cancel">
</g>
<g id="back">
</g>
<g id="plus">
</g>
<g id="bullhorn">
</g>
<g id="link">
</g>
<g id="pen">
</g>
<g id="bell">
</g>
<g id="search">
</g>
<g id="menu">
</g>
<g id="ellipsis">
</g>
<g id="balloon-comment">
</g>
<g id="heart-fill">
</g>
<g id="heart">
</g>
<g id="camera">
</g>
<g id="subscribe">
</g>
<g id="star">
</g>
</svg>
