<?xml version="1.0" encoding="utf-8"?>
<!-- Generator: Adobe Illustrator 18.1.1, SVG Export Plug-In . SVG Version: 6.00 Build 0)  -->
<svg version="1.1" xmlns="http://www.w3.org/2000/svg" xmlns:xlink="http://www.w3.org/1999/xlink" x="0px" y="0px"
	 viewBox="0 0 1440 1440" enable-background="new 0 0 1440 1440" xml:space="preserve">
<g id="dribbble">
</g>
<g id="globe">
</g>
<g id="github">
</g>
<g id="facebook">
</g>
<g id="twitter">
</g>
<g id="skype">
</g>
<g id="phone">
</g>
<g id="mail">
</g>
<g id="liferay-logo-2">
</g>
<g id="menu-content">
</g>
<g id="streams">
</g>
<g id="balloon-topic">
</g>
<g id="groups">
</g>
<g id="persons">
</g>
<g id="house">
</g>
<g id="liferay-logo">
</g>
<g id="eye">
</g>
<g id="confirm">
</g>
<g id="send">
</g>
<g id="cancel">
</g>
<g id="back">
</g>
<g id="plus">
</g>
<g id="bullhorn">
</g>
<g id="link">
	<path d="M1260,498.8c0,84.5-33.6,165.6-93.4,225.4l-127.5,127.5C979.4,911.4,898.3,945,813.8,945s-165.6-33.6-225.4-93.4
		c-23.2-23.2-42.4-49.5-57.2-78c0,0,124.4-110.5,127.3-111.4c2,8.5,4.6,16.8,8,25c8,19.4,19.7,36.8,34.5,51.7
		c14.9,14.9,32.3,26.5,51.7,34.5c19.4,8,40,12.1,61,12.1s41.6-4.1,61-12.1c19.4-8,36.8-19.7,51.7-34.5l127.5-127.5
		c14.9-14.9,26.5-32.3,34.5-51.7c8-19.4,12.1-40,12.1-61s-4.1-41.6-12.1-61c-8-19.4-19.7-36.8-34.5-51.7
		c-14.9-14.9-32.3-26.5-51.7-34.5c-19.4-8-40-12.1-61-12.1s-41.6,4.1-61,12.1c-19.4,8-36.8,19.7-51.7,34.5l-9.1,9.1
		c-42.7-15.9-87.4-24-133.2-24c-25.7,0-51,2.5-75.9,7.6l105.5-105.5c59.8-59.8,140.9-93.4,225.4-93.4s165.6,33.6,225.4,93.4
		C1226.4,333.1,1260,414.2,1260,498.8z M680.6,984.8l-9.1,9.1c-14.9,14.9-32.3,26.5-51.7,34.5c-19.4,8-40,12.1-61,12.1
		s-41.6-4.1-61-12.1c-19.4-8-36.8-19.7-51.7-34.5c-14.9-14.9-26.5-32.3-34.5-51.7c-8-19.4-12.1-40-12.1-61s4.1-41.6,12.1-61
		c8-19.4,19.7-36.8,34.5-51.7l127.5-127.5c14.9-14.9,32.3-26.5,51.7-34.5c19.4-8,40-12.1,61-12.1s41.6,4.1,61,12.1
		c19.4,8,36.8,19.7,51.7,34.5c14.9,14.9,26.5,32.3,34.5,51.7c3.4,8.2,6,16.5,8,25c3-0.9,127.3-111.4,127.3-111.4
		c-14.9-28.5-34.1-54.9-57.2-78C851.9,468.6,770.8,435,686.2,435s-165.6,33.6-225.4,93.4L333.4,655.9
		C273.6,715.6,240,796.7,240,881.2s33.6,165.6,93.4,225.4c59.8,59.8,140.9,93.4,225.4,93.4s165.6-33.6,225.4-93.4l105.5-105.5
		c-24.8,5-50.2,7.6-75.9,7.6C768,1008.8,723.3,1000.7,680.6,984.8z"/>
</g>
<g id="pen">
</g>
<g id="bell">
</g>
<g id="search">
</g>
<g id="menu">
</g>
<g id="ellipsis">
</g>
<g id="balloon-comment">
</g>
<g id="heart-fill">
</g>
<g id="heart">
</g>
<g id="camera">
</g>
<g id="subscribe">
</g>
<g id="star">
</g>
</svg>
