<?xml version="1.0" encoding="utf-8"?>
<!-- Generator: Adobe Illustrator 18.1.1, SVG Export Plug-In . SVG Version: 6.00 Build 0)  -->
<svg version="1.1" xmlns="http://www.w3.org/2000/svg" xmlns:xlink="http://www.w3.org/1999/xlink" x="0px" y="0px"
	 viewBox="0 0 1440 1440" enable-background="new 0 0 1440 1440" xml:space="preserve">
<g id="dribbble">
</g>
<g id="globe">
</g>
<g id="github">
</g>
<g id="facebook">
</g>
<g id="twitter">
</g>
<g id="skype">
</g>
<g id="phone">
</g>
<g id="mail">
</g>
<g id="liferay-logo-2">
</g>
<g id="menu-content">
</g>
<g id="streams">
</g>
<g id="balloon-topic">
</g>
<g id="groups">
</g>
<g id="persons">
	<path d="M600,720c56.8,0,108.9-19.7,150-52.7c41.1,32.9,93.2,52.7,150,52.7c132.5,0,240-107.5,240-240s-107.5-240-240-240
		c-56.8,0-108.9,19.7-150,52.7c-41.1-32.9-93.2-52.7-150-52.7c-132.5,0-240,107.5-240,240S467.5,720,600,720z M1027.3,352.7
		c34,34,52.7,79.2,52.7,127.3s-18.7,93.3-52.7,127.3c-34,34-79.2,52.7-127.3,52.7c-39.5,0-77-12.6-108-36c30.1-40.1,48-90,48-144
		s-17.9-103.9-48-144c31-23.3,68.5-36,108-36C948.1,300,993.3,318.7,1027.3,352.7z M1140,840H840H660H360c-66.3,0-120,53.7-120,120
		v300h300h420h300V960C1260,893.7,1206.3,840,1140,840z M1200,1200H960V960c0-21.9-5.8-42.3-16.1-60H1140c33.1,0,60,26.9,60,60V1200
		z"/>
</g>
<g id="house">
</g>
<g id="liferay-logo">
</g>
<g id="eye">
</g>
<g id="confirm">
</g>
<g id="send">
</g>
<g id="cancel">
</g>
<g id="back">
</g>
<g id="plus">
</g>
<g id="bullhorn">
</g>
<g id="link">
</g>
<g id="pen">
</g>
<g id="bell">
</g>
<g id="search">
</g>
<g id="menu">
</g>
<g id="ellipsis">
</g>
<g id="balloon-comment">
</g>
<g id="heart-fill">
</g>
<g id="heart">
</g>
<g id="camera">
</g>
<g id="subscribe">
</g>
<g id="star">
</g>
</svg>
