<?xml version="1.0" encoding="utf-8"?>
<!-- Generator: Adobe Illustrator 18.1.1, SVG Export Plug-In . SVG Version: 6.00 Build 0)  -->
<svg version="1.1" xmlns="http://www.w3.org/2000/svg" xmlns:xlink="http://www.w3.org/1999/xlink" x="0px" y="0px"
	 viewBox="0 0 1440 1440" enable-background="new 0 0 1440 1440" xml:space="preserve">
<g id="dribbble">
</g>
<g id="globe">
</g>
<g id="github">
</g>
<g id="facebook">
</g>
<g id="twitter">
</g>
<g id="skype">
</g>
<g id="phone">
</g>
<g id="mail">
</g>
<g id="liferay-logo-2">
</g>
<g id="menu-content">
</g>
<g id="streams">
</g>
<g id="balloon-topic">
</g>
<g id="groups">
</g>
<g id="persons">
</g>
<g id="house">
</g>
<g id="liferay-logo">
</g>
<g id="eye">
</g>
<g id="confirm">
</g>
<g id="send">
</g>
<g id="cancel">
</g>
<g id="back">
</g>
<g id="plus">
</g>
<g id="bullhorn">
</g>
<g id="link">
</g>
<g id="pen">
</g>
<g id="bell">
</g>
<g id="search">
	<path d="M1242.4,1157.6l-210-210c-14.2-14.2-33.7-19.8-52.1-16.8l-28.6-28.6C1030.8,825.8,1080,718.7,1080,600
		c0-232-188-420-420-420S240,368,240,600s188,420,420,420c88,0,169.7-27.1,237.2-73.3l33.6,33.6c-3,18.4,2.6,37.9,16.8,52.1l210,210
		c11.7,11.7,27.1,17.6,42.4,17.6s30.7-5.9,42.4-17.6C1265.9,1219,1265.9,1181,1242.4,1157.6z M660,900c-40.6,0-79.8-7.9-116.7-23.5
		c-35.7-15.1-67.8-36.8-95.4-64.3c-27.6-27.6-49.2-59.7-64.3-95.4C367.9,679.8,360,640.6,360,600s7.9-79.8,23.5-116.7
		c15.1-35.7,36.8-67.8,64.3-95.4c27.6-27.6,59.7-49.2,95.4-64.3C580.2,307.9,619.4,300,660,300s79.8,7.9,116.7,23.5
		c35.7,15.1,67.8,36.8,95.4,64.3c27.6,27.6,49.2,59.7,64.3,95.4C952.1,520.2,960,559.4,960,600s-7.9,79.8-23.5,116.7
		c-15.1,35.7-36.8,67.8-64.3,95.4c-27.6,27.6-59.7,49.2-95.4,64.3C739.8,892.1,700.6,900,660,900z"/>
</g>
<g id="menu">
</g>
<g id="ellipsis">
</g>
<g id="balloon-comment">
</g>
<g id="heart-fill">
</g>
<g id="heart">
</g>
<g id="camera">
</g>
<g id="subscribe">
</g>
<g id="star">
</g>
</svg>
