<?xml version="1.0" encoding="utf-8"?>
<!-- Generator: Adobe Illustrator 18.1.1, SVG Export Plug-In . SVG Version: 6.00 Build 0)  -->
<svg version="1.1" xmlns="http://www.w3.org/2000/svg" xmlns:xlink="http://www.w3.org/1999/xlink" x="0px" y="0px"
	 viewBox="0 0 1440 1440" enable-background="new 0 0 1440 1440" xml:space="preserve">
<g id="dribbble">
</g>
<g id="globe">
</g>
<g id="github">
</g>
<g id="facebook">
</g>
<g id="twitter">
	<path d="M1200,392.6c-27.4,39.6-60.3,73.7-98.7,101.8c0.6,5.5,0.6,14,0.6,25.6c0,105.4-30.5,212.7-93.2,309.6
		c-63.4,96.9-147.4,173.1-269.8,216.9c-61.5,22.5-126.7,33.5-196.8,33.5c-110.3,0-210.8-29.2-302.1-88.4c14,1.8,29.8,2.4,47.5,2.4
		c91.4,0,173-28,244.3-84.1c-85.3-1.8-159-57.9-184-136.5c13.4,1.8,25.6,3,37.2,3c17.7,0,34.7-2.4,51.8-6.7
		C346,750.9,279,671.7,279,576.7v-2.4c27.4,15.2,57.3,23.8,88.9,25c-53.6-36-87.7-96.3-87.7-163.9c0-36,9.1-68.9,26.8-99.3
		c98.1,121.3,244.9,198,405.7,206c-3-15.2-4.9-30.5-4.9-45.1c0-109.1,87.7-196.8,196.8-196.8c56.6,0,104.8,20.7,143.8,62.2
		c44.5-8.5,85.9-24.4,124.9-47.5c-15.2,46.9-43.9,82.9-86.5,108.5C1124.5,418.8,1162.2,409.1,1200,392.6z"/>
</g>
<g id="skype">
</g>
<g id="phone">
</g>
<g id="mail">
</g>
<g id="liferay-logo-2">
</g>
<g id="menu-content">
</g>
<g id="streams">
</g>
<g id="balloon-topic">
</g>
<g id="groups">
</g>
<g id="persons">
</g>
<g id="house">
</g>
<g id="liferay-logo">
</g>
<g id="eye">
</g>
<g id="confirm">
</g>
<g id="send">
</g>
<g id="cancel">
</g>
<g id="back">
</g>
<g id="plus">
</g>
<g id="bullhorn">
</g>
<g id="link">
</g>
<g id="pen">
</g>
<g id="bell">
</g>
<g id="search">
</g>
<g id="menu">
</g>
<g id="ellipsis">
</g>
<g id="balloon-comment">
</g>
<g id="heart-fill">
</g>
<g id="heart">
</g>
<g id="camera">
</g>
<g id="subscribe">
</g>
<g id="star">
</g>
</svg>
