<?xml version="1.0" encoding="utf-8"?>
<!-- Generator: Adobe Illustrator 18.1.1, SVG Export Plug-In . SVG Version: 6.00 Build 0)  -->
<svg version="1.1" xmlns="http://www.w3.org/2000/svg" xmlns:xlink="http://www.w3.org/1999/xlink" x="0px" y="0px"
	 viewBox="0 0 1280 1280" enable-background="new 0 0 1280 1280" xml:space="preserve">
<g id="flag">
</g>
<g id="flag-small">
</g>
<g id="signpost">
</g>
<g id="info-card">
</g>
<g id="journal">
</g>
<g id="network">
</g>
<g id="trash">
</g>
<g id="card">
</g>
<g id="browser">
</g>
<g id="arrows">
</g>
<g id="arrow-left-rod">
</g>
<g id="arrow-right-rod">
</g>
<g id="arrow-up-short">
</g>
<g id="arrow-down-short">
</g>
<g id="briefcase">
</g>
<g id="balloon-comments-fill">
</g>
<g id="balloon-comments">
	<path d="M1092.5,1172.6c-8.5,0-17-1.3-25.3-4.1l-248.6-82.9C762.1,1108.2,701,1120,640,1120c-62.3,0-123.1-11.8-180.6-35.2
		c-59.6-24.2-113-59.6-158.8-105.4c-45.8-45.8-81.3-99.2-105.4-158.8C171.8,763.1,160,702.3,160,640s11.8-123.1,35.2-180.6
		c24.2-59.6,59.6-113,105.4-158.8c45.8-45.8,99.2-81.3,158.8-105.4C516.9,171.8,577.7,160,640,160s123.1,11.8,180.6,35.2
		c59.6,24.2,113,59.6,158.8,105.4c72,72,118.5,163,134.5,263.2c7.7,48.2,8.1,97.1,1.1,145.4c-5.5,37.7-15.3,74.4-29.4,109.5
		l82.8,248.5c9.6,28.7,2.1,60.4-19.3,81.9C1133.9,1164.4,1113.4,1172.6,1092.5,1172.6z M814.7,919.9c8.5,0,17.1,1.4,25.3,4.1l126,42
		l-42-126c-6.6-19.8-5.2-41.4,3.9-60.2c59.5-122.6,34.7-269.7-61.7-366.1C805.8,353.3,725.5,320,640,320s-165.8,33.3-226.3,93.7
		S320,554.5,320,640s33.3,165.8,93.7,226.3C474.2,926.7,554.5,960,640,960c48.3,0,96.6-11.1,139.8-32
		C790.8,922.6,802.7,919.9,814.7,919.9z"/>
</g>
<g id="check">
</g>
<g id="balloon-topic">
</g>
<g id="persons">
</g>
<g id="groups">
</g>
<g id="link">
</g>
<g id="camera">
</g>
<g id="balloon-text">
</g>
<g id="building-big">
</g>
<g id="person-card-2">
</g>
<g id="person-card-3">
</g>
<g id="close-long">
</g>
<g id="star">
</g>
<g id="heart-fill">
</g>
<g id="heart">
</g>
<g id="plus">
</g>
<g id="arrow-right-long">
</g>
<g id="arrow-left-long">
</g>
<g id="close-short">
</g>
<g id="hash">
</g>
<g id="people">
</g>
<g id="building-small">
</g>
<g id="person">
</g>
<g id="post">
</g>
<g id="pin">
</g>
<g id="clock">
</g>
</svg>
