<?xml version="1.0" encoding="utf-8"?>
<!-- Generator: Adobe Illustrator 18.1.1, SVG Export Plug-In . SVG Version: 6.00 Build 0)  -->
<svg version="1.1" xmlns="http://www.w3.org/2000/svg" xmlns:xlink="http://www.w3.org/1999/xlink" x="0px" y="0px"
	 viewBox="0 0 1280 1280" enable-background="new 0 0 1280 1280" xml:space="preserve">
<g id="flag">
</g>
<g id="flag-small">
</g>
<g id="signpost">
</g>
<g id="info-card">
</g>
<g id="journal">
</g>
<g id="network">
</g>
<g id="trash">
</g>
<g id="card">
</g>
<g id="browser">
</g>
<g id="arrows">
</g>
<g id="arrow-left-rod">
</g>
<g id="arrow-right-rod">
</g>
<g id="arrow-up-short">
</g>
<g id="arrow-down-short">
</g>
<g id="briefcase">
</g>
<g id="balloon-comments-fill">
</g>
<g id="balloon-comments">
</g>
<g id="check">
</g>
<g id="balloon-topic">
</g>
<g id="persons">
</g>
<g id="groups">
</g>
<g id="link">
</g>
<g id="camera">
</g>
<g id="balloon-text">
</g>
<g id="building-big">
</g>
<g id="person-card-2">
	<path d="M960,320c0-88.4-71.6-160-160-160H320c-88.4,0-160,71.6-160,160v480c0,88.4,71.6,160,160,160c0,88.4,71.6,160,160,160h80
		h320h80c88.4,0,160-71.6,160-160V480C1120,391.6,1048.4,320,960,320z M240,800V320c0-44.1,35.9-80,80-80h480c44.1,0,80,35.9,80,80
		H480c-88.4,0-160,71.6-160,160v400C275.9,880,240,844.1,240,800z M1040,960c0,44.1-35.9,80-80,80h-80V880H560v160h-80
		c-44.1,0-80-35.9-80-80v-80V480c0-44.1,35.9-80,80-80h400h80c44.1,0,80,35.9,80,80V960z M880,640c0,88.4-71.6,160-160,160
		s-160-71.6-160-160c0-88.4,71.6-160,160-160S880,551.6,880,640z"/>
</g>
<g id="person-card-3">
</g>
<g id="close-long">
</g>
<g id="star">
</g>
<g id="heart-fill">
</g>
<g id="heart">
</g>
<g id="plus">
</g>
<g id="arrow-right-long">
</g>
<g id="arrow-left-long">
</g>
<g id="close-short">
</g>
<g id="hash">
</g>
<g id="people">
</g>
<g id="building-small">
</g>
<g id="person">
</g>
<g id="post">
</g>
<g id="pin">
</g>
<g id="clock">
</g>
</svg>
