<?xml version="1.0" encoding="utf-8"?>
<!-- Generator: Adobe Illustrator 18.1.1, SVG Export Plug-In . SVG Version: 6.00 Build 0)  -->
<svg version="1.1" xmlns="http://www.w3.org/2000/svg" xmlns:xlink="http://www.w3.org/1999/xlink" x="0px" y="0px"
	 viewBox="0 0 1280 1280" enable-background="new 0 0 1280 1280" xml:space="preserve">
<g id="flag">
</g>
<g id="flag-small">
</g>
<g id="signpost">
</g>
<g id="info-card">
	<path d="M1120,160H160c-44.2,0-80,35.8-80,80v800c0,44.2,35.8,80,80,80h960c44.2,0,80-35.8,80-80V240
		C1200,195.8,1164.2,160,1120,160z M1120,1040H160V240h960V1040z M560,960H240V720h320V960z M240,480c0-88.4,71.6-160,160-160
		s160,71.6,160,160s-71.6,160-160,160S240,568.4,240,480z M1040,480H640v-80h400V480z M1040,640H640v-80h400V640z M1040,800H640v-80
		h400V800z"/>
</g>
<g id="journal">
</g>
<g id="network">
</g>
<g id="trash">
</g>
<g id="card">
</g>
<g id="browser">
</g>
<g id="arrows">
</g>
<g id="arrow-left-rod">
</g>
<g id="arrow-right-rod">
</g>
<g id="arrow-up-short">
</g>
<g id="arrow-down-short">
</g>
<g id="briefcase">
</g>
<g id="balloon-comments-fill">
</g>
<g id="balloon-comments">
</g>
<g id="check">
</g>
<g id="balloon-topic">
</g>
<g id="persons">
</g>
<g id="groups">
</g>
<g id="link">
</g>
<g id="camera">
</g>
<g id="balloon-text">
</g>
<g id="building-big">
</g>
<g id="person-card-2">
</g>
<g id="person-card-3">
</g>
<g id="close-long">
</g>
<g id="star">
</g>
<g id="heart-fill">
</g>
<g id="heart">
</g>
<g id="plus">
</g>
<g id="arrow-right-long">
</g>
<g id="arrow-left-long">
</g>
<g id="close-short">
</g>
<g id="hash">
</g>
<g id="people">
</g>
<g id="building-small">
</g>
<g id="person">
</g>
<g id="post">
</g>
<g id="pin">
</g>
<g id="clock">
</g>
</svg>
