<?xml version="1.0" encoding="utf-8"?>
<!-- Generator: Adobe Illustrator 18.1.1, SVG Export Plug-In . SVG Version: 6.00 Build 0)  -->
<svg version="1.1" xmlns="http://www.w3.org/2000/svg" xmlns:xlink="http://www.w3.org/1999/xlink" x="0px" y="0px"
	 viewBox="0 0 1200 960" enable-background="new 0 0 1200 960" xml:space="preserve">
<g id="arrow-left-rod">
</g>
<g id="arrow-right-rod">
</g>
<g id="arrow-up-short">
</g>
<g id="arrow-down-short">
</g>
<g id="heart-full">
</g>
<g id="balloon-comments-inline">
</g>
<g id="balloon-comments">
</g>
<g id="check">
</g>
<g id="balloon_x5F_topic">
</g>
<g id="persons">
</g>
<g id="groups">
</g>
<g id="building_x5F_big">
</g>
<g id="person_x5F_card_x5F_2">
</g>
<g id="person_x5F_card_x5F_3">
</g>
<g id="plus">
</g>
<g id="arrow_x5F_right_x5F_long">
</g>
<g id="arrow_x5F_left_x5F_long">
</g>
<g id="close_x5F_short">
</g>
<g id="hash">
</g>
<g id="people">
	<path fill-rule="evenodd" clip-rule="evenodd" d="M320,880H80V600c0-66.3,53.7-120,120-120h0c66.3,0,120,53.7,120,120V880z
		 M1120,600c0-66.3-53.7-120-120-120h0c-66.3,0-120,53.7-120,120v280h240V600z M800,520c0-66.3-53.7-120-120-120H520
		c-66.3,0-120,53.7-120,120v360h400V520z M200,400c66.3,0,120-53.7,120-120s-53.7-120-120-120S80,213.7,80,280S133.7,400,200,400z
		 M1000,400c66.3,0,120-53.7,120-120s-53.7-120-120-120s-120,53.7-120,120S933.7,400,1000,400z M600-80C489.5-80,400,9.5,400,120
		s89.5,200,200,200s200-89.5,200-200S710.5-80,600-80z"/>
</g>
<g id="building_x5F_small">
</g>
<g id="person">
</g>
<g id="heart_x5F_inline">
</g>
<g id="close_x5F_long">
</g>
<g id="post">
</g>
<g id="star">
</g>
<g id="heart_x5F_outline">
</g>
<g id="link">
</g>
<g id="camera">
</g>
<g id="balloon_x5F_text">
</g>
<g id="pin">
</g>
<g id="clock">
</g>
<g id="guide">
</g>
</svg>
