<?xml version="1.0" encoding="utf-8"?>
<!-- Generator: Adobe Illustrator 18.1.1, SVG Export Plug-In . SVG Version: 6.00 Build 0)  -->
<svg version="1.1" xmlns="http://www.w3.org/2000/svg" xmlns:xlink="http://www.w3.org/1999/xlink" x="0px" y="0px"
	 viewBox="0 0 960 960" enable-background="new 0 0 960 960" xml:space="preserve">
<g id="arrow-left-rod">
</g>
<g id="arrow-right-rod">
</g>
<g id="arrow-up-short">
</g>
<g id="arrow-down-short">
</g>
<g id="heart-full">
</g>
<g id="balloon-comments-inline">
</g>
<g id="balloon-comments">
</g>
<g id="check">
</g>
<g id="balloon_x5F_topic">
</g>
<g id="persons">
</g>
<g id="groups">
</g>
<g id="building_x5F_big">
</g>
<g id="person_x5F_card_x5F_2">
</g>
<g id="person_x5F_card_x5F_3">
</g>
<g id="plus">
</g>
<g id="arrow_x5F_right_x5F_long">
</g>
<g id="arrow_x5F_left_x5F_long">
</g>
<g id="close_x5F_short">
</g>
<g id="hash">
</g>
<g id="people">
</g>
<g id="building_x5F_small">
</g>
<g id="person">
</g>
<g id="heart_x5F_inline">
</g>
<g id="close_x5F_long">
</g>
<g id="post">
</g>
<g id="star">
</g>
<g id="heart_x5F_outline">
</g>
<g id="link">
</g>
<g id="camera">
</g>
<g id="balloon_x5F_text">
</g>
<g id="pin">
	<path d="M480-80C259.1-80,80,99.1,80,320c0,66.4,16.2,129,44.8,184.2C273.5,818,274.3,819.8,335.4,949h0.2
		c25.8,53.8,80.7,91,144.4,91s118.6-37.2,144.4-91h0.2c61.1-129.2,61.9-131,210.6-444.8C863.8,449,880,386.4,880,320
		C880,99.1,700.9-80,480-80z M480,480c-88.4,0-160-71.6-160-160s71.6-160,160-160s160,71.6,160,160S568.4,480,480,480z"/>
</g>
<g id="clock">
</g>
<g id="guide">
</g>
</svg>
