<?xml version="1.0" encoding="utf-8"?>
<!-- Generator: Adobe Illustrator 18.1.1, SVG Export Plug-In . SVG Version: 6.00 Build 0)  -->
<svg version="1.1" xmlns="http://www.w3.org/2000/svg" xmlns:xlink="http://www.w3.org/1999/xlink" x="0px" y="0px"
	 viewBox="0 0 1140 960" enable-background="new 0 0 1140 960" xml:space="preserve">
<g id="streams">
</g>
<g id="balloon-topic">
</g>
<g id="groups">
</g>
<g id="persons">
</g>
<g id="house">
</g>
<g id="liferay-logo">
	<path d="M120,0h180v180H120V0z M360,180h180V0H360V180z M600,180h180V0H600V180z M120,420h180V240H120V420z M360,420h180V240H360
		V420z M840,240v180h180V240H840z M120,660h180V480H120V660z M600,660h180V480H600V660z M840,660h180V480H840V660z M360,900h180V720
		H360V900z M600,900h180V720H600V900z M840,900h180V720H840V900z"/>
</g>
<g id="heart-full">
</g>
<g id="confirm">
</g>
<g id="send">
</g>
<g id="back">
</g>
<g id="cancel_1_">
</g>
<g id="plus">
</g>
<g id="bullhorn">
</g>
<g id="link">
</g>
<g id="pen">
</g>
<g id="bell">
</g>
<g id="magnifier">
</g>
<g id="menu_x5F_hamburguer">
</g>
<g id="ellipsis">
</g>
<g id="balloon_x5F_comment">
</g>
<g id="heart_x5F_inline">
</g>
<g id="heart_x5F_outline">
</g>
<g id="camera">
</g>
<g id="subscribe">
</g>
<g id="star">
</g>
<g id="guides">
</g>
</svg>
