<?xml version="1.0" encoding="utf-8"?>
<!-- Generator: Adobe Illustrator 18.1.1, SVG Export Plug-In . SVG Version: 6.00 Build 0)  -->
<svg version="1.1" xmlns="http://www.w3.org/2000/svg" xmlns:xlink="http://www.w3.org/1999/xlink" x="0px" y="0px"
	 viewBox="0 0 1440 1440" enable-background="new 0 0 1440 1440" xml:space="preserve">
<g id="dribbble">
</g>
<g id="globe">
</g>
<g id="github">
</g>
<g id="facebook">
</g>
<g id="twitter">
</g>
<g id="skype">
</g>
<g id="phone">
</g>
<g id="mail">
</g>
<g id="liferay-logo-2">
</g>
<g id="menu-content">
</g>
<g id="streams">
</g>
<g id="balloon-topic">
</g>
<g id="groups">
</g>
<g id="persons">
</g>
<g id="house">
</g>
<g id="liferay-logo">
</g>
<g id="eye">
</g>
<g id="confirm">
</g>
<g id="send">
</g>
<g id="cancel">
</g>
<g id="back">
</g>
<g id="plus">
</g>
<g id="bullhorn">
</g>
<g id="link">
</g>
<g id="pen">
</g>
<g id="bell">
</g>
<g id="search">
</g>
<g id="menu">
</g>
<g id="ellipsis">
</g>
<g id="balloon-comment">
</g>
<g id="heart-fill">
</g>
<g id="heart">
</g>
<g id="camera">
	<path d="M1080,360h-60c0-99.4-80.6-180-180-180H600c-99.4,0-180,80.6-180,180h-60c-99.4,0-180,80.6-180,180v480
		c0,99.4,80.6,180,180,180h720c99.4,0,180-80.6,180-180V540C1260,440.6,1179.4,360,1080,360z M720,1020c-165.7,0-300-134.3-300-300
		s134.3-300,300-300s300,134.3,300,300S885.7,1020,720,1020z M720,900c-99.4,0-180-80.6-180-180s80.6-180,180-180s180,80.6,180,180
		S819.4,900,720,900z"/>
</g>
<g id="subscribe">
</g>
<g id="star">
</g>
</svg>
