<?xml version="1.0" encoding="utf-8"?>
<!-- Generator: Adobe Illustrator 18.1.1, SVG Export Plug-In . SVG Version: 6.00 Build 0)  -->
<svg version="1.1" xmlns="http://www.w3.org/2000/svg" xmlns:xlink="http://www.w3.org/1999/xlink" x="0px" y="0px"
	 viewBox="0 0 1440 1440" enable-background="new 0 0 1440 1440" xml:space="preserve">
<g id="dribbble">
	<path d="M1135.6,478.8c43.1,73.8,64.4,154.4,64.4,241.2c0,174.4-91.9,330-238.8,415.6c-73.8,43.1-154.4,64.4-241.2,64.4
		c-174.4,0-330-91.9-415.6-239.4C261.2,887.5,240,806.9,240,720c0-174.4,91.9-330,239.4-415.6C552.5,261.2,633.1,240,720,240
		C894.4,240,1050,331.9,1135.6,478.8z M1123.8,714.4l6.2,1.2c-1.2-96.9-32.5-181.9-93.1-256.2l-0.6,0.6c-3.8,5-7.5,10-11.9,15
		c-8.1,10.6-40,41.9-71.2,65.6s-87.5,58.1-145,81.2c10.6,21.9,19.4,41.9,27.5,59.4c1.9,5,6.2,16.9,8.8,21.2
		c30-4.4,63.1-5.6,92.5-5.6s58.1,1.2,83.1,3.1c25,2.5,47.5,5,65.6,7.5C1103.1,710.6,1115.6,712.5,1123.8,714.4z M990.6,412.5
		C913.8,344.4,823.1,310,720,310c-31.9,0-63.8,3.8-96.9,11.9c54.4,70.6,105.6,150.6,153.8,238.8c57.5-21.9,111.9-53.8,141.9-76.2
		c29.4-22.5,58.1-52.5,64.4-61.2C986.2,418.8,988.8,415.6,990.6,412.5z M621.9,321.9c-0.6,0-0.6,0-1.2,0.6
		C621.2,321.9,621.2,321.9,621.9,321.9z M1125,785c-87.5-25-172.5-31.2-255.6-18.1c36.2,99.4,63.1,197.5,80,293.1
		C1041.9,997.5,1106.9,898.1,1125,785z M697.5,585.6c-50-88.8-100.6-167.5-152.5-236.2C430,403.8,345.6,510,318.8,635.6
		C444.4,635.6,570.6,618.8,697.5,585.6z M764.4,718.1c-8.8-20.6-20-43.8-33.1-69.4c-129.4,38.8-270,58.1-420.6,58.1
		c-0.6,3.1-0.6,7.5-0.6,13.1c0,103.1,38.1,199.4,105,273.8c41.9-74.4,108.8-142.5,166.2-181.9s111.9-68.8,143.8-80.6l23.1-8.1
		C751.2,722.5,761.2,720,764.4,718.1z M880,1097.5c-17.5-100.6-46.9-204.4-87.5-311.2h-1.2l-1.2,0.6c-6.9,2.5-15.6,5.6-26.9,10
		c-22.5,8.8-96.2,45.6-148.8,81.9s-116.9,100-146.2,164.4l-9.4-6.9c76.9,62.5,163.8,93.8,261.2,93.8
		C775,1130,828.1,1119.4,880,1097.5z"/>
</g>
<g id="globe">
</g>
<g id="github">
</g>
<g id="facebook">
</g>
<g id="twitter">
</g>
<g id="skype">
</g>
<g id="phone">
</g>
<g id="mail">
</g>
<g id="liferay-logo-2">
</g>
<g id="menu-content">
</g>
<g id="streams">
</g>
<g id="balloon-topic">
</g>
<g id="groups">
</g>
<g id="persons">
</g>
<g id="house">
</g>
<g id="liferay-logo">
</g>
<g id="eye">
</g>
<g id="confirm">
</g>
<g id="send">
</g>
<g id="cancel">
</g>
<g id="back">
</g>
<g id="plus">
</g>
<g id="bullhorn">
</g>
<g id="link">
</g>
<g id="pen">
</g>
<g id="bell">
</g>
<g id="search">
</g>
<g id="menu">
</g>
<g id="ellipsis">
</g>
<g id="balloon-comment">
</g>
<g id="heart-fill">
</g>
<g id="heart">
</g>
<g id="camera">
</g>
<g id="subscribe">
</g>
<g id="star">
</g>
</svg>
