<?xml version="1.0" encoding="utf-8"?>
<!-- Generator: Adobe Illustrator 18.1.1, SVG Export Plug-In . SVG Version: 6.00 Build 0)  -->
<svg version="1.1" xmlns="http://www.w3.org/2000/svg" xmlns:xlink="http://www.w3.org/1999/xlink" x="0px" y="0px"
	 viewBox="0 0 1560 960" enable-background="new 0 0 1560 960" xml:space="preserve">
<g id="streams">
</g>
<g id="balloon-topic">
</g>
<g id="groups">
</g>
<g id="persons">
</g>
<g id="house">
</g>
<g id="liferay-logo">
</g>
<g id="heart-full">
</g>
<g id="confirm">
</g>
<g id="send">
</g>
<g id="back">
</g>
<g id="cancel_1_">
</g>
<g id="plus">
</g>
<g id="bullhorn">
</g>
<g id="link">
</g>
<g id="pen">
</g>
<g id="bell">
</g>
<g id="magnifier">
</g>
<g id="menu_x5F_hamburguer">
</g>
<g id="ellipsis">
	<path d="M480,420c0,99.4-80.6,180-180,180s-180-80.6-180-180s80.6-180,180-180S480,320.6,480,420z M780,240
		c-99.4,0-180,80.6-180,180s80.6,180,180,180s180-80.6,180-180S879.4,240,780,240z M1260,240c-99.4,0-180,80.6-180,180
		s80.6,180,180,180s180-80.6,180-180S1359.4,240,1260,240z"/>
</g>
<g id="balloon_x5F_comment">
</g>
<g id="heart_x5F_inline">
</g>
<g id="heart_x5F_outline">
</g>
<g id="camera">
</g>
<g id="subscribe">
</g>
<g id="star">
</g>
<g id="guides">
</g>
</svg>
