<?xml version="1.0" encoding="utf-8"?>
<!-- Generator: Adobe Illustrator 18.1.1, SVG Export Plug-In . SVG Version: 6.00 Build 0)  -->
<svg version="1.1" xmlns="http://www.w3.org/2000/svg" xmlns:xlink="http://www.w3.org/1999/xlink" x="0px" y="0px"
	 viewBox="0 0 1440 1440" enable-background="new 0 0 1440 1440" xml:space="preserve">
<g id="dribbble">
</g>
<g id="globe">
</g>
<g id="github">
</g>
<g id="facebook">
</g>
<g id="twitter">
</g>
<g id="skype">
</g>
<g id="phone">
</g>
<g id="mail">
</g>
<g id="liferay-logo-2">
</g>
<g id="menu-content">
</g>
<g id="streams">
</g>
<g id="balloon-topic">
</g>
<g id="groups">
</g>
<g id="persons">
</g>
<g id="house">
</g>
<g id="liferay-logo">
</g>
<g id="eye">
</g>
<g id="confirm">
</g>
<g id="send">
</g>
<g id="cancel">
</g>
<g id="back">
</g>
<g id="plus">
</g>
<g id="bullhorn">
</g>
<g id="link">
</g>
<g id="pen">
</g>
<g id="bell">
</g>
<g id="search">
</g>
<g id="menu">
</g>
<g id="ellipsis">
	<path d="M420,720c0,99.4-80.6,180-180,180S60,819.4,60,720s80.6-180,180-180S420,620.6,420,720z M720,540c-99.4,0-180,80.6-180,180
		s80.6,180,180,180s180-80.6,180-180S819.4,540,720,540z M1200,540c-99.4,0-180,80.6-180,180s80.6,180,180,180s180-80.6,180-180
		S1299.4,540,1200,540z"/>
</g>
<g id="balloon-comment">
</g>
<g id="heart-fill">
</g>
<g id="heart">
</g>
<g id="camera">
</g>
<g id="subscribe">
</g>
<g id="star">
</g>
</svg>
