<?xml version="1.0" encoding="utf-8"?>
<!-- Generator: Adobe Illustrator 18.1.1, SVG Export Plug-In . SVG Version: 6.00 Build 0)  -->
<svg version="1.1" xmlns="http://www.w3.org/2000/svg" xmlns:xlink="http://www.w3.org/1999/xlink" x="0px" y="0px"
	 viewBox="0 0 1440 1440" enable-background="new 0 0 1440 1440" xml:space="preserve">
<g id="dribbble">
</g>
<g id="globe">
</g>
<g id="github">
</g>
<g id="facebook">
</g>
<g id="twitter">
</g>
<g id="skype">
</g>
<g id="phone">
</g>
<g id="mail">
</g>
<g id="liferay-logo-2">
</g>
<g id="menu-content">
</g>
<g id="streams">
</g>
<g id="balloon-topic">
</g>
<g id="groups">
	<path d="M480,360c0,66.3-53.7,120-120,120s-120-53.7-120-120s53.7-120,120-120S480,293.7,480,360z M720,240
		c-66.3,0-120,53.7-120,120s53.7,120,120,120s120-53.7,120-120S786.3,240,720,240z M1080,240c-66.3,0-120,53.7-120,120
		s53.7,120,120,120s120-53.7,120-120S1146.3,240,1080,240z M360,600c-66.3,0-120,53.7-120,120s53.7,120,120,120s120-53.7,120-120
		S426.3,600,360,600z M720,600c-66.3,0-120,53.7-120,120s53.7,120,120,120s120-53.7,120-120S786.3,600,720,600z M1080,600
		c-66.3,0-120,53.7-120,120s53.7,120,120,120s120-53.7,120-120S1146.3,600,1080,600z M360,960c-66.3,0-120,53.7-120,120
		s53.7,120,120,120s120-53.7,120-120S426.3,960,360,960z M720,960c-66.3,0-120,53.7-120,120s53.7,120,120,120s120-53.7,120-120
		S786.3,960,720,960z M1080,960c-66.3,0-120,53.7-120,120s53.7,120,120,120s120-53.7,120-120S1146.3,960,1080,960z"/>
</g>
<g id="persons">
</g>
<g id="house">
</g>
<g id="liferay-logo">
</g>
<g id="eye">
</g>
<g id="confirm">
</g>
<g id="send">
</g>
<g id="cancel">
</g>
<g id="back">
</g>
<g id="plus">
</g>
<g id="bullhorn">
</g>
<g id="link">
</g>
<g id="pen">
</g>
<g id="bell">
</g>
<g id="search">
</g>
<g id="menu">
</g>
<g id="ellipsis">
</g>
<g id="balloon-comment">
</g>
<g id="heart-fill">
</g>
<g id="heart">
</g>
<g id="camera">
</g>
<g id="subscribe">
</g>
<g id="star">
</g>
</svg>
