<?xml version="1.0" encoding="utf-8"?>
<!-- Generator: Adobe Illustrator 18.1.1, SVG Export Plug-In . SVG Version: 6.00 Build 0)  -->
<svg version="1.1" xmlns="http://www.w3.org/2000/svg" xmlns:xlink="http://www.w3.org/1999/xlink" x="0px" y="0px"
	 viewBox="0 0 1440 960" enable-background="new 0 0 1440 960" xml:space="preserve">
<g id="streams">
</g>
<g id="balloon-topic">
</g>
<g id="groups">
</g>
<g id="persons">
</g>
<g id="house">
</g>
<g id="liferay-logo">
</g>
<g id="heart-full">
	<path d="M990-60.8c-111.6,0-210.3,55.4-270,140.1C660.3-5.5,561.6-60.8,450-60.8c-182.3,0-330,147.6-330,329.6
		c0,82.8,30.6,158.5,81.1,216.4l0,0c313.8,360.2,314,360.5,428,491.3c0.1,0.1,0.1,0.7,0.2,0.8c0,0,0.1,0.7,0.1,0.7h0
		c22,25,54.4,41.2,90.5,41.2c36.1,0,68.5-16.2,90.5-41.2h0c0.1,0,0.1-0.7,0.2-0.7c0.1-0.1,0.1-0.4,0.2-0.5
		c114-130.7,114.3-131.3,428.2-491.4l0,0c50.5-57.9,81.1-133.6,81.1-216.5C1320,86.8,1172.3-60.8,990-60.8L990-60.8z"/>
</g>
<g id="confirm">
</g>
<g id="send">
</g>
<g id="back">
</g>
<g id="cancel_1_">
</g>
<g id="plus">
</g>
<g id="bullhorn">
</g>
<g id="link">
</g>
<g id="pen">
</g>
<g id="bell">
</g>
<g id="magnifier">
</g>
<g id="menu_x5F_hamburguer">
</g>
<g id="ellipsis">
</g>
<g id="balloon_x5F_comment">
</g>
<g id="heart_x5F_inline">
</g>
<g id="heart_x5F_outline">
</g>
<g id="camera">
</g>
<g id="subscribe">
</g>
<g id="star">
</g>
<g id="guides">
</g>
</svg>
