<?xml version="1.0" encoding="UTF-8" standalone="no"?>
<!-- Generator: Avocode 1.1.1 - http://avocode.com -->
<svg xmlns="http://www.w3.org/2000/svg" xmlns:xlink="http://www.w3.org/1999/xlink" width="41" height="47" viewBox="0 0 41 47">
    <desc>Created with Avocode</desc>
    <path d="M 20.41 -0.03 L 20.41 -0.03 C 21.96 -0.03, 23.32 1.81, 23.32 3.86 L 23.32 15.81 L 38.31 25.48 C 40.11 26.72, 40.9 27.78, 40.62 30.89 C 40.39 33.45, 37.73 32.26, 34.89 31.15 L 23.29 26.6 C 23.19 31.07, 22.9 35.11, 22.48 38.29 C 22.39 38.89, 22.72 39.37, 23.12 39.61 L 28.01 42.77 C 28.95 43.42, 29.37 43.97, 29.22 45.61 C 29.1 46.95, 27.7 46.32, 26.22 45.74 L 21.37 43.77 C 21.08 44.63, 20.76 45.19, 20.43 45.4 C 20.43 45.4, 20.42 45.4, 20.41 45.4 C 20.4 45.4, 20.4 45.4, 20.39 45.4 C 20.06 45.19, 19.75 44.63, 19.46 43.77 L 14.6 45.74 C 13.12 46.32, 11.72 46.95, 11.6 45.61 C 11.46 43.97, 11.87 43.42, 12.82 42.77 L 17.7 39.61 C 18.1 39.37, 18.43 38.89, 18.34 38.29 C 17.92 35.11, 17.63 31.07, 17.53 26.6 L 5.93 31.15 C 3.09 32.26, 0.43 33.45, 0.2 30.89 C -0.08 27.77, 0.72 26.72, 2.52 25.48 L 17.5 15.8 L 17.51 3.86 C 17.51 1.81, 18.85 -0.03, 20.41 -0.03 Z" fill="#ffffff" />
</svg>